  0
SECTION
  2
HEADER
  9
$ACADVER
  1
AC1009
  9
$EXTMIN
 10
0.0
 20
0.0
 30
0.0
  9
$EXTMAX
 10
1000.0
 20
1000.0
 30
0.0
  9
$FILLMODE
 70
 0
  9
$SPLFRAME
 70
 1
  0
ENDSEC
  0
SECTION
  2
TABLES
  0
TABLE
  2
LAYER
 70
1
  0
LAYER
  2
0
 70
     0
 62
     7
  6
CONTINUOUS
  0
ENDTAB
  0
ENDSEC
  0
SECTION
  2
ENTITIES
  0
LINE
  8
0
 62
     0
 10
0.0950846
 20
76.4575
 30
0.0
 11
323.945
 21
76.4575
 31
0.0
  0
LINE
  8
0
 62
     0
 10
323.945
 20
76.4575
 30
0.0
 11
323.945
 21
0.257693
 31
0.0
  0
LINE
  8
0
 62
     0
 10
323.945
 20
0.257693
 30
0.0
 11
0.0950846
 21
0.257693
 31
0.0
  0
LINE
  8
0
 62
     0
 10
0.0950846
 20
0.257693
 30
0.0
 11
0.0950846
 21
76.4575
 31
0.0
  0
LINE
  8
0
 62
     0
 10
174.07
 20
16.7831
 30
0.0
 11
174.07
 21
15.7827
 31
0.0
  0
LINE
  8
0
 62
     0
 10
174.07
 20
15.7827
 30
0.0
 11
173.269
 21
15.7827
 31
0.0
  0
LINE
  8
0
 62
     0
 10
173.269
 20
15.7827
 30
0.0
 11
173.269
 21
12.6848
 31
0.0
  0
LINE
  8
0
 62
     0
 10
173.269
 20
12.6848
 30
0.0
 11
174.07
 21
12.6848
 31
0.0
  0
LINE
  8
0
 62
     0
 10
174.07
 20
12.6848
 30
0.0
 11
174.07
 21
6.88329
 31
0.0
  0
LINE
  8
0
 62
     0
 10
174.07
 20
6.88329
 30
0.0
 11
173.269
 21
6.88329
 31
0.0
  0
LINE
  8
0
 62
     0
 10
173.269
 20
6.88329
 30
0.0
 11
173.269
 21
3.78273
 31
0.0
  0
LINE
  8
0
 62
     0
 10
173.269
 20
3.78273
 30
0.0
 11
174.07
 21
3.78273
 31
0.0
  0
LINE
  8
0
 62
     0
 10
174.07
 20
3.78273
 30
0.0
 11
174.07
 21
2.78364
 31
0.0
  0
LINE
  8
0
 62
     0
 10
174.07
 20
2.78364
 30
0.0
 11
177.045
 21
2.78364
 31
0.0
  0
LINE
  8
0
 62
     0
 10
177.045
 20
2.78364
 30
0.0
 11
177.045
 21
1.8135
 31
0.0
  0
LINE
  8
0
 62
     0
 10
177.045
 20
1.8135
 30
0.0
 11
180.344
 21
1.8135
 31
0.0
  0
LINE
  8
0
 62
     0
 10
180.344
 20
1.8135
 30
0.0
 11
180.344
 21
2.78364
 31
0.0
  0
LINE
  8
0
 62
     0
 10
180.344
 20
2.78364
 30
0.0
 11
196.095
 21
2.78364
 31
0.0
  0
LINE
  8
0
 62
     0
 10
196.095
 20
2.78364
 30
0.0
 11
196.095
 21
1.8135
 31
0.0
  0
LINE
  8
0
 62
     0
 10
196.095
 20
1.8135
 30
0.0
 11
199.394
 21
1.8135
 31
0.0
  0
LINE
  8
0
 62
     0
 10
199.394
 20
1.8135
 30
0.0
 11
199.394
 21
2.78364
 31
0.0
  0
LINE
  8
0
 62
     0
 10
199.394
 20
2.78364
 30
0.0
 11
200.845
 21
2.78364
 31
0.0
  0
LINE
  8
0
 62
     0
 10
200.845
 20
2.78364
 30
0.0
 11
200.845
 21
1.8135
 31
0.0
  0
LINE
  8
0
 62
     0
 10
200.845
 20
1.8135
 30
0.0
 11
204.144
 21
1.8135
 31
0.0
  0
LINE
  8
0
 62
     0
 10
204.144
 20
1.8135
 30
0.0
 11
204.144
 21
2.78364
 31
0.0
  0
LINE
  8
0
 62
     0
 10
204.144
 20
2.78364
 30
0.0
 11
215.145
 21
2.78364
 31
0.0
  0
LINE
  8
0
 62
     0
 10
215.145
 20
2.78364
 30
0.0
 11
215.145
 21
1.8135
 31
0.0
  0
LINE
  8
0
 62
     0
 10
215.145
 20
1.8135
 30
0.0
 11
218.444
 21
1.8135
 31
0.0
  0
LINE
  8
0
 62
     0
 10
218.444
 20
1.8135
 30
0.0
 11
218.444
 21
2.78364
 31
0.0
  0
LINE
  8
0
 62
     0
 10
218.444
 20
2.78364
 30
0.0
 11
219.895
 21
2.78364
 31
0.0
  0
LINE
  8
0
 62
     0
 10
219.895
 20
2.78364
 30
0.0
 11
219.895
 21
1.8135
 31
0.0
  0
LINE
  8
0
 62
     0
 10
219.895
 20
1.8135
 30
0.0
 11
223.194
 21
1.8135
 31
0.0
  0
LINE
  8
0
 62
     0
 10
223.194
 20
1.8135
 30
0.0
 11
223.194
 21
2.78364
 31
0.0
  0
LINE
  8
0
 62
     0
 10
223.194
 20
2.78364
 30
0.0
 11
238.945
 21
2.78364
 31
0.0
  0
LINE
  8
0
 62
     0
 10
238.945
 20
2.78364
 30
0.0
 11
238.945
 21
1.8135
 31
0.0
  0
LINE
  8
0
 62
     0
 10
238.945
 20
1.8135
 30
0.0
 11
242.244
 21
1.8135
 31
0.0
  0
LINE
  8
0
 62
     0
 10
242.244
 20
1.8135
 30
0.0
 11
242.244
 21
2.78364
 31
0.0
  0
LINE
  8
0
 62
     0
 10
242.244
 20
2.78364
 30
0.0
 11
245.219
 21
2.78364
 31
0.0
  0
LINE
  8
0
 62
     0
 10
245.219
 20
2.78364
 30
0.0
 11
245.219
 21
3.78273
 31
0.0
  0
LINE
  8
0
 62
     0
 10
245.219
 20
3.78273
 30
0.0
 11
246.02
 21
3.78273
 31
0.0
  0
LINE
  8
0
 62
     0
 10
246.02
 20
3.78273
 30
0.0
 11
246.02
 21
6.88329
 31
0.0
  0
LINE
  8
0
 62
     0
 10
246.02
 20
6.88329
 30
0.0
 11
245.219
 21
6.88329
 31
0.0
  0
LINE
  8
0
 62
     0
 10
245.219
 20
6.88329
 30
0.0
 11
245.219
 21
12.6848
 31
0.0
  0
LINE
  8
0
 62
     0
 10
245.219
 20
12.6848
 30
0.0
 11
246.02
 21
12.6848
 31
0.0
  0
LINE
  8
0
 62
     0
 10
246.02
 20
12.6848
 30
0.0
 11
246.02
 21
15.7827
 31
0.0
  0
LINE
  8
0
 62
     0
 10
246.02
 20
15.7827
 30
0.0
 11
245.219
 21
15.7827
 31
0.0
  0
LINE
  8
0
 62
     0
 10
245.219
 20
15.7827
 30
0.0
 11
245.219
 21
16.7831
 31
0.0
  0
LINE
  8
0
 62
     0
 10
245.219
 20
16.7831
 30
0.0
 11
174.07
 21
16.7831
 31
0.0
  0
LINE
  8
0
 62
     0
 10
78.8197
 20
16.7831
 30
0.0
 11
78.8197
 21
15.7827
 31
0.0
  0
LINE
  8
0
 62
     0
 10
78.8197
 20
15.7827
 30
0.0
 11
78.0189
 21
15.7827
 31
0.0
  0
LINE
  8
0
 62
     0
 10
78.0189
 20
15.7827
 30
0.0
 11
78.0189
 21
12.6848
 31
0.0
  0
LINE
  8
0
 62
     0
 10
78.0189
 20
12.6848
 30
0.0
 11
78.8197
 21
12.6848
 31
0.0
  0
LINE
  8
0
 62
     0
 10
78.8197
 20
12.6848
 30
0.0
 11
78.8197
 21
6.88329
 31
0.0
  0
LINE
  8
0
 62
     0
 10
78.8197
 20
6.88329
 30
0.0
 11
78.0189
 21
6.88329
 31
0.0
  0
LINE
  8
0
 62
     0
 10
78.0189
 20
6.88329
 30
0.0
 11
78.0189
 21
3.78273
 31
0.0
  0
LINE
  8
0
 62
     0
 10
78.0189
 20
3.78273
 30
0.0
 11
78.8197
 21
3.78273
 31
0.0
  0
LINE
  8
0
 62
     0
 10
78.8197
 20
3.78273
 30
0.0
 11
78.8197
 21
2.78364
 31
0.0
  0
LINE
  8
0
 62
     0
 10
78.8197
 20
2.78364
 30
0.0
 11
81.7947
 21
2.78364
 31
0.0
  0
LINE
  8
0
 62
     0
 10
81.7947
 20
2.78364
 30
0.0
 11
81.7947
 21
1.8135
 31
0.0
  0
LINE
  8
0
 62
     0
 10
81.7947
 20
1.8135
 30
0.0
 11
85.0939
 21
1.8135
 31
0.0
  0
LINE
  8
0
 62
     0
 10
85.0939
 20
1.8135
 30
0.0
 11
85.0939
 21
2.78364
 31
0.0
  0
LINE
  8
0
 62
     0
 10
85.0939
 20
2.78364
 30
0.0
 11
100.845
 21
2.78364
 31
0.0
  0
LINE
  8
0
 62
     0
 10
100.845
 20
2.78364
 30
0.0
 11
100.845
 21
1.8135
 31
0.0
  0
LINE
  8
0
 62
     0
 10
100.845
 20
1.8135
 30
0.0
 11
104.144
 21
1.8135
 31
0.0
  0
LINE
  8
0
 62
     0
 10
104.144
 20
1.8135
 30
0.0
 11
104.144
 21
2.78364
 31
0.0
  0
LINE
  8
0
 62
     0
 10
104.144
 20
2.78364
 30
0.0
 11
105.595
 21
2.78364
 31
0.0
  0
LINE
  8
0
 62
     0
 10
105.595
 20
2.78364
 30
0.0
 11
105.595
 21
1.8135
 31
0.0
  0
LINE
  8
0
 62
     0
 10
105.595
 20
1.8135
 30
0.0
 11
108.894
 21
1.8135
 31
0.0
  0
LINE
  8
0
 62
     0
 10
108.894
 20
1.8135
 30
0.0
 11
108.894
 21
2.78364
 31
0.0
  0
LINE
  8
0
 62
     0
 10
108.894
 20
2.78364
 30
0.0
 11
119.895
 21
2.78364
 31
0.0
  0
LINE
  8
0
 62
     0
 10
119.895
 20
2.78364
 30
0.0
 11
119.895
 21
1.8135
 31
0.0
  0
LINE
  8
0
 62
     0
 10
119.895
 20
1.8135
 30
0.0
 11
123.194
 21
1.8135
 31
0.0
  0
LINE
  8
0
 62
     0
 10
123.194
 20
1.8135
 30
0.0
 11
123.194
 21
2.78364
 31
0.0
  0
LINE
  8
0
 62
     0
 10
123.194
 20
2.78364
 30
0.0
 11
124.645
 21
2.78364
 31
0.0
  0
LINE
  8
0
 62
     0
 10
124.645
 20
2.78364
 30
0.0
 11
124.645
 21
1.8135
 31
0.0
  0
LINE
  8
0
 62
     0
 10
124.645
 20
1.8135
 30
0.0
 11
127.944
 21
1.8135
 31
0.0
  0
LINE
  8
0
 62
     0
 10
127.944
 20
1.8135
 30
0.0
 11
127.944
 21
2.78364
 31
0.0
  0
LINE
  8
0
 62
     0
 10
127.944
 20
2.78364
 30
0.0
 11
143.695
 21
2.78364
 31
0.0
  0
LINE
  8
0
 62
     0
 10
143.695
 20
2.78364
 30
0.0
 11
143.695
 21
1.8135
 31
0.0
  0
LINE
  8
0
 62
     0
 10
143.695
 20
1.8135
 30
0.0
 11
146.994
 21
1.8135
 31
0.0
  0
LINE
  8
0
 62
     0
 10
146.994
 20
1.8135
 30
0.0
 11
146.994
 21
2.78364
 31
0.0
  0
LINE
  8
0
 62
     0
 10
146.994
 20
2.78364
 30
0.0
 11
149.969
 21
2.78364
 31
0.0
  0
LINE
  8
0
 62
     0
 10
149.969
 20
2.78364
 30
0.0
 11
149.969
 21
3.78273
 31
0.0
  0
LINE
  8
0
 62
     0
 10
149.969
 20
3.78273
 30
0.0
 11
150.77
 21
3.78273
 31
0.0
  0
LINE
  8
0
 62
     0
 10
150.77
 20
3.78273
 30
0.0
 11
150.77
 21
6.88329
 31
0.0
  0
LINE
  8
0
 62
     0
 10
150.77
 20
6.88329
 30
0.0
 11
149.969
 21
6.88329
 31
0.0
  0
LINE
  8
0
 62
     0
 10
149.969
 20
6.88329
 30
0.0
 11
149.969
 21
12.6848
 31
0.0
  0
LINE
  8
0
 62
     0
 10
149.969
 20
12.6848
 30
0.0
 11
150.77
 21
12.6848
 31
0.0
  0
LINE
  8
0
 62
     0
 10
150.77
 20
12.6848
 30
0.0
 11
150.77
 21
15.7827
 31
0.0
  0
LINE
  8
0
 62
     0
 10
150.77
 20
15.7827
 30
0.0
 11
149.969
 21
15.7827
 31
0.0
  0
LINE
  8
0
 62
     0
 10
149.969
 20
15.7827
 30
0.0
 11
149.969
 21
16.7831
 31
0.0
  0
LINE
  8
0
 62
     0
 10
149.969
 20
16.7831
 30
0.0
 11
78.8197
 21
16.7831
 31
0.0
  0
LINE
  8
0
 62
     0
 10
307.42
 20
16.7831
 30
0.0
 11
307.42
 21
15.7827
 31
0.0
  0
LINE
  8
0
 62
     0
 10
307.42
 20
15.7827
 30
0.0
 11
306.619
 21
15.7827
 31
0.0
  0
LINE
  8
0
 62
     0
 10
306.619
 20
15.7827
 30
0.0
 11
306.619
 21
12.6848
 31
0.0
  0
LINE
  8
0
 62
     0
 10
306.619
 20
12.6848
 30
0.0
 11
307.42
 21
12.6848
 31
0.0
  0
LINE
  8
0
 62
     0
 10
307.42
 20
12.6848
 30
0.0
 11
307.42
 21
6.88329
 31
0.0
  0
LINE
  8
0
 62
     0
 10
307.42
 20
6.88329
 30
0.0
 11
306.619
 21
6.88329
 31
0.0
  0
LINE
  8
0
 62
     0
 10
306.619
 20
6.88329
 30
0.0
 11
306.619
 21
3.78273
 31
0.0
  0
LINE
  8
0
 62
     0
 10
306.619
 20
3.78273
 30
0.0
 11
307.42
 21
3.78273
 31
0.0
  0
LINE
  8
0
 62
     0
 10
307.42
 20
3.78273
 30
0.0
 11
307.42
 21
2.78364
 31
0.0
  0
LINE
  8
0
 62
     0
 10
307.42
 20
2.78364
 30
0.0
 11
321.419
 21
2.78364
 31
0.0
  0
LINE
  8
0
 62
     0
 10
321.419
 20
2.78364
 30
0.0
 11
321.419
 21
3.78273
 31
0.0
  0
LINE
  8
0
 62
     0
 10
321.419
 20
3.78273
 30
0.0
 11
322.22
 21
3.78273
 31
0.0
  0
LINE
  8
0
 62
     0
 10
322.22
 20
3.78273
 30
0.0
 11
322.22
 21
6.88329
 31
0.0
  0
LINE
  8
0
 62
     0
 10
322.22
 20
6.88329
 30
0.0
 11
321.419
 21
6.88329
 31
0.0
  0
LINE
  8
0
 62
     0
 10
321.419
 20
6.88329
 30
0.0
 11
321.419
 21
12.6848
 31
0.0
  0
LINE
  8
0
 62
     0
 10
321.419
 20
12.6848
 30
0.0
 11
322.22
 21
12.6848
 31
0.0
  0
LINE
  8
0
 62
     0
 10
322.22
 20
12.6848
 30
0.0
 11
322.22
 21
15.7827
 31
0.0
  0
LINE
  8
0
 62
     0
 10
322.22
 20
15.7827
 30
0.0
 11
321.419
 21
15.7827
 31
0.0
  0
LINE
  8
0
 62
     0
 10
321.419
 20
15.7827
 30
0.0
 11
321.419
 21
16.7831
 31
0.0
  0
LINE
  8
0
 62
     0
 10
321.419
 20
16.7831
 30
0.0
 11
307.42
 21
16.7831
 31
0.0
  0
LINE
  8
0
 62
     0
 10
288.37
 20
16.7831
 30
0.0
 11
288.37
 21
15.7827
 31
0.0
  0
LINE
  8
0
 62
     0
 10
288.37
 20
15.7827
 30
0.0
 11
287.569
 21
15.7827
 31
0.0
  0
LINE
  8
0
 62
     0
 10
287.569
 20
15.7827
 30
0.0
 11
287.569
 21
12.6848
 31
0.0
  0
LINE
  8
0
 62
     0
 10
287.569
 20
12.6848
 30
0.0
 11
288.37
 21
12.6848
 31
0.0
  0
LINE
  8
0
 62
     0
 10
288.37
 20
12.6848
 30
0.0
 11
288.37
 21
6.88329
 31
0.0
  0
LINE
  8
0
 62
     0
 10
288.37
 20
6.88329
 30
0.0
 11
287.569
 21
6.88329
 31
0.0
  0
LINE
  8
0
 62
     0
 10
287.569
 20
6.88329
 30
0.0
 11
287.569
 21
3.78273
 31
0.0
  0
LINE
  8
0
 62
     0
 10
287.569
 20
3.78273
 30
0.0
 11
288.37
 21
3.78273
 31
0.0
  0
LINE
  8
0
 62
     0
 10
288.37
 20
3.78273
 30
0.0
 11
288.37
 21
2.78364
 31
0.0
  0
LINE
  8
0
 62
     0
 10
288.37
 20
2.78364
 30
0.0
 11
302.369
 21
2.78364
 31
0.0
  0
LINE
  8
0
 62
     0
 10
302.369
 20
2.78364
 30
0.0
 11
302.369
 21
3.78273
 31
0.0
  0
LINE
  8
0
 62
     0
 10
302.369
 20
3.78273
 30
0.0
 11
303.17
 21
3.78273
 31
0.0
  0
LINE
  8
0
 62
     0
 10
303.17
 20
3.78273
 30
0.0
 11
303.17
 21
6.88329
 31
0.0
  0
LINE
  8
0
 62
     0
 10
303.17
 20
6.88329
 30
0.0
 11
302.369
 21
6.88329
 31
0.0
  0
LINE
  8
0
 62
     0
 10
302.369
 20
6.88329
 30
0.0
 11
302.369
 21
12.6848
 31
0.0
  0
LINE
  8
0
 62
     0
 10
302.369
 20
12.6848
 30
0.0
 11
303.17
 21
12.6848
 31
0.0
  0
LINE
  8
0
 62
     0
 10
303.17
 20
12.6848
 30
0.0
 11
303.17
 21
15.7827
 31
0.0
  0
LINE
  8
0
 62
     0
 10
303.17
 20
15.7827
 30
0.0
 11
302.369
 21
15.7827
 31
0.0
  0
LINE
  8
0
 62
     0
 10
302.369
 20
15.7827
 30
0.0
 11
302.369
 21
16.7831
 31
0.0
  0
LINE
  8
0
 62
     0
 10
302.369
 20
16.7831
 30
0.0
 11
288.37
 21
16.7831
 31
0.0
  0
LINE
  8
0
 62
     0
 10
269.32
 20
16.7831
 30
0.0
 11
269.32
 21
15.7827
 31
0.0
  0
LINE
  8
0
 62
     0
 10
269.32
 20
15.7827
 30
0.0
 11
268.519
 21
15.7827
 31
0.0
  0
LINE
  8
0
 62
     0
 10
268.519
 20
15.7827
 30
0.0
 11
268.519
 21
12.6848
 31
0.0
  0
LINE
  8
0
 62
     0
 10
268.519
 20
12.6848
 30
0.0
 11
269.32
 21
12.6848
 31
0.0
  0
LINE
  8
0
 62
     0
 10
269.32
 20
12.6848
 30
0.0
 11
269.32
 21
6.88329
 31
0.0
  0
LINE
  8
0
 62
     0
 10
269.32
 20
6.88329
 30
0.0
 11
268.519
 21
6.88329
 31
0.0
  0
LINE
  8
0
 62
     0
 10
268.519
 20
6.88329
 30
0.0
 11
268.519
 21
3.78273
 31
0.0
  0
LINE
  8
0
 62
     0
 10
268.519
 20
3.78273
 30
0.0
 11
269.32
 21
3.78273
 31
0.0
  0
LINE
  8
0
 62
     0
 10
269.32
 20
3.78273
 30
0.0
 11
269.32
 21
2.78364
 31
0.0
  0
LINE
  8
0
 62
     0
 10
269.32
 20
2.78364
 30
0.0
 11
283.319
 21
2.78364
 31
0.0
  0
LINE
  8
0
 62
     0
 10
283.319
 20
2.78364
 30
0.0
 11
283.319
 21
3.78273
 31
0.0
  0
LINE
  8
0
 62
     0
 10
283.319
 20
3.78273
 30
0.0
 11
284.12
 21
3.78273
 31
0.0
  0
LINE
  8
0
 62
     0
 10
284.12
 20
3.78273
 30
0.0
 11
284.12
 21
6.88329
 31
0.0
  0
LINE
  8
0
 62
     0
 10
284.12
 20
6.88329
 30
0.0
 11
283.319
 21
6.88329
 31
0.0
  0
LINE
  8
0
 62
     0
 10
283.319
 20
6.88329
 30
0.0
 11
283.319
 21
12.6848
 31
0.0
  0
LINE
  8
0
 62
     0
 10
283.319
 20
12.6848
 30
0.0
 11
284.12
 21
12.6848
 31
0.0
  0
LINE
  8
0
 62
     0
 10
284.12
 20
12.6848
 30
0.0
 11
284.12
 21
15.7827
 31
0.0
  0
LINE
  8
0
 62
     0
 10
284.12
 20
15.7827
 30
0.0
 11
283.319
 21
15.7827
 31
0.0
  0
LINE
  8
0
 62
     0
 10
283.319
 20
15.7827
 30
0.0
 11
283.319
 21
16.7831
 31
0.0
  0
LINE
  8
0
 62
     0
 10
283.319
 20
16.7831
 30
0.0
 11
269.32
 21
16.7831
 31
0.0
  0
LINE
  8
0
 62
     0
 10
250.27
 20
16.7831
 30
0.0
 11
250.27
 21
15.7827
 31
0.0
  0
LINE
  8
0
 62
     0
 10
250.27
 20
15.7827
 30
0.0
 11
249.469
 21
15.7827
 31
0.0
  0
LINE
  8
0
 62
     0
 10
249.469
 20
15.7827
 30
0.0
 11
249.469
 21
12.6848
 31
0.0
  0
LINE
  8
0
 62
     0
 10
249.469
 20
12.6848
 30
0.0
 11
250.27
 21
12.6848
 31
0.0
  0
LINE
  8
0
 62
     0
 10
250.27
 20
12.6848
 30
0.0
 11
250.27
 21
6.88329
 31
0.0
  0
LINE
  8
0
 62
     0
 10
250.27
 20
6.88329
 30
0.0
 11
249.469
 21
6.88329
 31
0.0
  0
LINE
  8
0
 62
     0
 10
249.469
 20
6.88329
 30
0.0
 11
249.469
 21
3.78273
 31
0.0
  0
LINE
  8
0
 62
     0
 10
249.469
 20
3.78273
 30
0.0
 11
250.27
 21
3.78273
 31
0.0
  0
LINE
  8
0
 62
     0
 10
250.27
 20
3.78273
 30
0.0
 11
250.27
 21
2.78364
 31
0.0
  0
LINE
  8
0
 62
     0
 10
250.27
 20
2.78364
 30
0.0
 11
264.269
 21
2.78364
 31
0.0
  0
LINE
  8
0
 62
     0
 10
264.269
 20
2.78364
 30
0.0
 11
264.269
 21
3.78273
 31
0.0
  0
LINE
  8
0
 62
     0
 10
264.269
 20
3.78273
 30
0.0
 11
265.07
 21
3.78273
 31
0.0
  0
LINE
  8
0
 62
     0
 10
265.07
 20
3.78273
 30
0.0
 11
265.07
 21
6.88329
 31
0.0
  0
LINE
  8
0
 62
     0
 10
265.07
 20
6.88329
 30
0.0
 11
264.269
 21
6.88329
 31
0.0
  0
LINE
  8
0
 62
     0
 10
264.269
 20
6.88329
 30
0.0
 11
264.269
 21
12.6848
 31
0.0
  0
LINE
  8
0
 62
     0
 10
264.269
 20
12.6848
 30
0.0
 11
265.07
 21
12.6848
 31
0.0
  0
LINE
  8
0
 62
     0
 10
265.07
 20
12.6848
 30
0.0
 11
265.07
 21
15.7827
 31
0.0
  0
LINE
  8
0
 62
     0
 10
265.07
 20
15.7827
 30
0.0
 11
264.269
 21
15.7827
 31
0.0
  0
LINE
  8
0
 62
     0
 10
264.269
 20
15.7827
 30
0.0
 11
264.269
 21
16.7831
 31
0.0
  0
LINE
  8
0
 62
     0
 10
264.269
 20
16.7831
 30
0.0
 11
250.27
 21
16.7831
 31
0.0
  0
LINE
  8
0
 62
     0
 10
155.02
 20
16.7831
 30
0.0
 11
155.02
 21
15.7827
 31
0.0
  0
LINE
  8
0
 62
     0
 10
155.02
 20
15.7827
 30
0.0
 11
154.219
 21
15.7827
 31
0.0
  0
LINE
  8
0
 62
     0
 10
154.219
 20
15.7827
 30
0.0
 11
154.219
 21
12.6848
 31
0.0
  0
LINE
  8
0
 62
     0
 10
154.219
 20
12.6848
 30
0.0
 11
155.02
 21
12.6848
 31
0.0
  0
LINE
  8
0
 62
     0
 10
155.02
 20
12.6848
 30
0.0
 11
155.02
 21
6.88329
 31
0.0
  0
LINE
  8
0
 62
     0
 10
155.02
 20
6.88329
 30
0.0
 11
154.219
 21
6.88329
 31
0.0
  0
LINE
  8
0
 62
     0
 10
154.219
 20
6.88329
 30
0.0
 11
154.219
 21
3.78273
 31
0.0
  0
LINE
  8
0
 62
     0
 10
154.219
 20
3.78273
 30
0.0
 11
155.02
 21
3.78273
 31
0.0
  0
LINE
  8
0
 62
     0
 10
155.02
 20
3.78273
 30
0.0
 11
155.02
 21
2.78364
 31
0.0
  0
LINE
  8
0
 62
     0
 10
155.02
 20
2.78364
 30
0.0
 11
169.019
 21
2.78364
 31
0.0
  0
LINE
  8
0
 62
     0
 10
169.019
 20
2.78364
 30
0.0
 11
169.019
 21
3.78273
 31
0.0
  0
LINE
  8
0
 62
     0
 10
169.019
 20
3.78273
 30
0.0
 11
169.82
 21
3.78273
 31
0.0
  0
LINE
  8
0
 62
     0
 10
169.82
 20
3.78273
 30
0.0
 11
169.82
 21
6.88329
 31
0.0
  0
LINE
  8
0
 62
     0
 10
169.82
 20
6.88329
 30
0.0
 11
169.019
 21
6.88329
 31
0.0
  0
LINE
  8
0
 62
     0
 10
169.019
 20
6.88329
 30
0.0
 11
169.019
 21
12.6848
 31
0.0
  0
LINE
  8
0
 62
     0
 10
169.019
 20
12.6848
 30
0.0
 11
169.82
 21
12.6848
 31
0.0
  0
LINE
  8
0
 62
     0
 10
169.82
 20
12.6848
 30
0.0
 11
169.82
 21
15.7827
 31
0.0
  0
LINE
  8
0
 62
     0
 10
169.82
 20
15.7827
 30
0.0
 11
169.019
 21
15.7827
 31
0.0
  0
LINE
  8
0
 62
     0
 10
169.019
 20
15.7827
 30
0.0
 11
169.019
 21
16.7831
 31
0.0
  0
LINE
  8
0
 62
     0
 10
169.019
 20
16.7831
 30
0.0
 11
155.02
 21
16.7831
 31
0.0
  0
LINE
  8
0
 62
     0
 10
59.7697
 20
16.7831
 30
0.0
 11
59.7697
 21
15.7827
 31
0.0
  0
LINE
  8
0
 62
     0
 10
59.7697
 20
15.7827
 30
0.0
 11
58.9689
 21
15.7827
 31
0.0
  0
LINE
  8
0
 62
     0
 10
58.9689
 20
15.7827
 30
0.0
 11
58.9689
 21
12.6848
 31
0.0
  0
LINE
  8
0
 62
     0
 10
58.9689
 20
12.6848
 30
0.0
 11
59.7697
 21
12.6848
 31
0.0
  0
LINE
  8
0
 62
     0
 10
59.7697
 20
12.6848
 30
0.0
 11
59.7697
 21
6.88329
 31
0.0
  0
LINE
  8
0
 62
     0
 10
59.7697
 20
6.88329
 30
0.0
 11
58.9689
 21
6.88329
 31
0.0
  0
LINE
  8
0
 62
     0
 10
58.9689
 20
6.88329
 30
0.0
 11
58.9689
 21
3.78273
 31
0.0
  0
LINE
  8
0
 62
     0
 10
58.9689
 20
3.78273
 30
0.0
 11
59.7697
 21
3.78273
 31
0.0
  0
LINE
  8
0
 62
     0
 10
59.7697
 20
3.78273
 30
0.0
 11
59.7697
 21
2.78364
 31
0.0
  0
LINE
  8
0
 62
     0
 10
59.7697
 20
2.78364
 30
0.0
 11
73.769
 21
2.78364
 31
0.0
  0
LINE
  8
0
 62
     0
 10
73.769
 20
2.78364
 30
0.0
 11
73.769
 21
3.78273
 31
0.0
  0
LINE
  8
0
 62
     0
 10
73.769
 20
3.78273
 30
0.0
 11
74.5698
 21
3.78273
 31
0.0
  0
LINE
  8
0
 62
     0
 10
74.5698
 20
3.78273
 30
0.0
 11
74.5698
 21
6.88329
 31
0.0
  0
LINE
  8
0
 62
     0
 10
74.5698
 20
6.88329
 30
0.0
 11
73.769
 21
6.88329
 31
0.0
  0
LINE
  8
0
 62
     0
 10
73.769
 20
6.88329
 30
0.0
 11
73.769
 21
12.6848
 31
0.0
  0
LINE
  8
0
 62
     0
 10
73.769
 20
12.6848
 30
0.0
 11
74.5698
 21
12.6848
 31
0.0
  0
LINE
  8
0
 62
     0
 10
74.5698
 20
12.6848
 30
0.0
 11
74.5698
 21
15.7827
 31
0.0
  0
LINE
  8
0
 62
     0
 10
74.5698
 20
15.7827
 30
0.0
 11
73.769
 21
15.7827
 31
0.0
  0
LINE
  8
0
 62
     0
 10
73.769
 20
15.7827
 30
0.0
 11
73.769
 21
16.7831
 31
0.0
  0
LINE
  8
0
 62
     0
 10
73.769
 20
16.7831
 30
0.0
 11
59.7697
 21
16.7831
 31
0.0
  0
LINE
  8
0
 62
     0
 10
40.7197
 20
16.7831
 30
0.0
 11
40.7197
 21
15.7827
 31
0.0
  0
LINE
  8
0
 62
     0
 10
40.7197
 20
15.7827
 30
0.0
 11
39.9189
 21
15.7827
 31
0.0
  0
LINE
  8
0
 62
     0
 10
39.9189
 20
15.7827
 30
0.0
 11
39.9189
 21
12.6848
 31
0.0
  0
LINE
  8
0
 62
     0
 10
39.9189
 20
12.6848
 30
0.0
 11
40.7197
 21
12.6848
 31
0.0
  0
LINE
  8
0
 62
     0
 10
40.7197
 20
12.6848
 30
0.0
 11
40.7197
 21
6.88329
 31
0.0
  0
LINE
  8
0
 62
     0
 10
40.7197
 20
6.88329
 30
0.0
 11
39.9189
 21
6.88329
 31
0.0
  0
LINE
  8
0
 62
     0
 10
39.9189
 20
6.88329
 30
0.0
 11
39.9189
 21
3.78273
 31
0.0
  0
LINE
  8
0
 62
     0
 10
39.9189
 20
3.78273
 30
0.0
 11
40.7197
 21
3.78273
 31
0.0
  0
LINE
  8
0
 62
     0
 10
40.7197
 20
3.78273
 30
0.0
 11
40.7197
 21
2.78364
 31
0.0
  0
LINE
  8
0
 62
     0
 10
40.7197
 20
2.78364
 30
0.0
 11
54.719
 21
2.78364
 31
0.0
  0
LINE
  8
0
 62
     0
 10
54.719
 20
2.78364
 30
0.0
 11
54.719
 21
3.78273
 31
0.0
  0
LINE
  8
0
 62
     0
 10
54.719
 20
3.78273
 30
0.0
 11
55.5198
 21
3.78273
 31
0.0
  0
LINE
  8
0
 62
     0
 10
55.5198
 20
3.78273
 30
0.0
 11
55.5198
 21
6.88329
 31
0.0
  0
LINE
  8
0
 62
     0
 10
55.5198
 20
6.88329
 30
0.0
 11
54.719
 21
6.88329
 31
0.0
  0
LINE
  8
0
 62
     0
 10
54.719
 20
6.88329
 30
0.0
 11
54.719
 21
12.6848
 31
0.0
  0
LINE
  8
0
 62
     0
 10
54.719
 20
12.6848
 30
0.0
 11
55.5198
 21
12.6848
 31
0.0
  0
LINE
  8
0
 62
     0
 10
55.5198
 20
12.6848
 30
0.0
 11
55.5198
 21
15.7827
 31
0.0
  0
LINE
  8
0
 62
     0
 10
55.5198
 20
15.7827
 30
0.0
 11
54.719
 21
15.7827
 31
0.0
  0
LINE
  8
0
 62
     0
 10
54.719
 20
15.7827
 30
0.0
 11
54.719
 21
16.7831
 31
0.0
  0
LINE
  8
0
 62
     0
 10
54.719
 20
16.7831
 30
0.0
 11
40.7197
 21
16.7831
 31
0.0
  0
LINE
  8
0
 62
     0
 10
21.6697
 20
16.7831
 30
0.0
 11
21.6697
 21
15.7827
 31
0.0
  0
LINE
  8
0
 62
     0
 10
21.6697
 20
15.7827
 30
0.0
 11
20.869
 21
15.7827
 31
0.0
  0
LINE
  8
0
 62
     0
 10
20.869
 20
15.7827
 30
0.0
 11
20.869
 21
12.6848
 31
0.0
  0
LINE
  8
0
 62
     0
 10
20.869
 20
12.6848
 30
0.0
 11
21.6697
 21
12.6848
 31
0.0
  0
LINE
  8
0
 62
     0
 10
21.6697
 20
12.6848
 30
0.0
 11
21.6697
 21
6.88329
 31
0.0
  0
LINE
  8
0
 62
     0
 10
21.6697
 20
6.88329
 30
0.0
 11
20.869
 21
6.88329
 31
0.0
  0
LINE
  8
0
 62
     0
 10
20.869
 20
6.88329
 30
0.0
 11
20.869
 21
3.78273
 31
0.0
  0
LINE
  8
0
 62
     0
 10
20.869
 20
3.78273
 30
0.0
 11
21.6697
 21
3.78273
 31
0.0
  0
LINE
  8
0
 62
     0
 10
21.6697
 20
3.78273
 30
0.0
 11
21.6697
 21
2.78364
 31
0.0
  0
LINE
  8
0
 62
     0
 10
21.6697
 20
2.78364
 30
0.0
 11
35.669
 21
2.78364
 31
0.0
  0
LINE
  8
0
 62
     0
 10
35.669
 20
2.78364
 30
0.0
 11
35.669
 21
3.78273
 31
0.0
  0
LINE
  8
0
 62
     0
 10
35.669
 20
3.78273
 30
0.0
 11
36.4698
 21
3.78273
 31
0.0
  0
LINE
  8
0
 62
     0
 10
36.4698
 20
3.78273
 30
0.0
 11
36.4698
 21
6.88329
 31
0.0
  0
LINE
  8
0
 62
     0
 10
36.4698
 20
6.88329
 30
0.0
 11
35.669
 21
6.88329
 31
0.0
  0
LINE
  8
0
 62
     0
 10
35.669
 20
6.88329
 30
0.0
 11
35.669
 21
12.6848
 31
0.0
  0
LINE
  8
0
 62
     0
 10
35.669
 20
12.6848
 30
0.0
 11
36.4698
 21
12.6848
 31
0.0
  0
LINE
  8
0
 62
     0
 10
36.4698
 20
12.6848
 30
0.0
 11
36.4698
 21
15.7827
 31
0.0
  0
LINE
  8
0
 62
     0
 10
36.4698
 20
15.7827
 30
0.0
 11
35.669
 21
15.7827
 31
0.0
  0
LINE
  8
0
 62
     0
 10
35.669
 20
15.7827
 30
0.0
 11
35.669
 21
16.7831
 31
0.0
  0
LINE
  8
0
 62
     0
 10
35.669
 20
16.7831
 30
0.0
 11
21.6697
 21
16.7831
 31
0.0
  0
LINE
  8
0
 62
     0
 10
2.61965
 20
16.7831
 30
0.0
 11
2.61965
 21
15.7827
 31
0.0
  0
LINE
  8
0
 62
     0
 10
2.61965
 20
15.7827
 30
0.0
 11
1.81901
 21
15.7827
 31
0.0
  0
LINE
  8
0
 62
     0
 10
1.81901
 20
15.7827
 30
0.0
 11
1.81901
 21
12.6848
 31
0.0
  0
LINE
  8
0
 62
     0
 10
1.81901
 20
12.6848
 30
0.0
 11
2.61965
 21
12.6848
 31
0.0
  0
LINE
  8
0
 62
     0
 10
2.61965
 20
12.6848
 30
0.0
 11
2.61965
 21
6.88329
 31
0.0
  0
LINE
  8
0
 62
     0
 10
2.61965
 20
6.88329
 30
0.0
 11
1.81901
 21
6.88329
 31
0.0
  0
LINE
  8
0
 62
     0
 10
1.81901
 20
6.88329
 30
0.0
 11
1.81901
 21
3.78273
 31
0.0
  0
LINE
  8
0
 62
     0
 10
1.81901
 20
3.78273
 30
0.0
 11
2.61965
 21
3.78273
 31
0.0
  0
LINE
  8
0
 62
     0
 10
2.61965
 20
3.78273
 30
0.0
 11
2.61965
 21
2.78364
 31
0.0
  0
LINE
  8
0
 62
     0
 10
2.61965
 20
2.78364
 30
0.0
 11
16.6192
 21
2.78364
 31
0.0
  0
LINE
  8
0
 62
     0
 10
16.6192
 20
2.78364
 30
0.0
 11
16.6192
 21
3.78273
 31
0.0
  0
LINE
  8
0
 62
     0
 10
16.6192
 20
3.78273
 30
0.0
 11
17.4198
 21
3.78273
 31
0.0
  0
LINE
  8
0
 62
     0
 10
17.4198
 20
3.78273
 30
0.0
 11
17.4198
 21
6.88329
 31
0.0
  0
LINE
  8
0
 62
     0
 10
17.4198
 20
6.88329
 30
0.0
 11
16.6192
 21
6.88329
 31
0.0
  0
LINE
  8
0
 62
     0
 10
16.6192
 20
6.88329
 30
0.0
 11
16.6192
 21
12.6848
 31
0.0
  0
LINE
  8
0
 62
     0
 10
16.6192
 20
12.6848
 30
0.0
 11
17.4198
 21
12.6848
 31
0.0
  0
LINE
  8
0
 62
     0
 10
17.4198
 20
12.6848
 30
0.0
 11
17.4198
 21
15.7827
 31
0.0
  0
LINE
  8
0
 62
     0
 10
17.4198
 20
15.7827
 30
0.0
 11
16.6192
 21
15.7827
 31
0.0
  0
LINE
  8
0
 62
     0
 10
16.6192
 20
15.7827
 30
0.0
 11
16.6192
 21
16.7831
 31
0.0
  0
LINE
  8
0
 62
     0
 10
16.6192
 20
16.7831
 30
0.0
 11
2.61965
 21
16.7831
 31
0.0
  0
LINE
  8
0
 62
     0
 10
307.42
 20
35.833
 30
0.0
 11
307.42
 21
34.8327
 31
0.0
  0
LINE
  8
0
 62
     0
 10
307.42
 20
34.8327
 30
0.0
 11
306.619
 21
34.8327
 31
0.0
  0
LINE
  8
0
 62
     0
 10
306.619
 20
34.8327
 30
0.0
 11
306.619
 21
31.7335
 31
0.0
  0
LINE
  8
0
 62
     0
 10
306.619
 20
31.7335
 30
0.0
 11
307.42
 21
31.7335
 31
0.0
  0
LINE
  8
0
 62
     0
 10
307.42
 20
31.7335
 30
0.0
 11
307.42
 21
25.9333
 31
0.0
  0
LINE
  8
0
 62
     0
 10
307.42
 20
25.9333
 30
0.0
 11
306.619
 21
25.9333
 31
0.0
  0
LINE
  8
0
 62
     0
 10
306.619
 20
25.9333
 30
0.0
 11
306.619
 21
22.8327
 31
0.0
  0
LINE
  8
0
 62
     0
 10
306.619
 20
22.8327
 30
0.0
 11
307.42
 21
22.8327
 31
0.0
  0
LINE
  8
0
 62
     0
 10
307.42
 20
22.8327
 30
0.0
 11
307.42
 21
21.8336
 31
0.0
  0
LINE
  8
0
 62
     0
 10
307.42
 20
21.8336
 30
0.0
 11
321.419
 21
21.8336
 31
0.0
  0
LINE
  8
0
 62
     0
 10
321.419
 20
21.8336
 30
0.0
 11
321.419
 21
22.8327
 31
0.0
  0
LINE
  8
0
 62
     0
 10
321.419
 20
22.8327
 30
0.0
 11
322.22
 21
22.8327
 31
0.0
  0
LINE
  8
0
 62
     0
 10
322.22
 20
22.8327
 30
0.0
 11
322.22
 21
25.9333
 31
0.0
  0
LINE
  8
0
 62
     0
 10
322.22
 20
25.9333
 30
0.0
 11
321.419
 21
25.9333
 31
0.0
  0
LINE
  8
0
 62
     0
 10
321.419
 20
25.9333
 30
0.0
 11
321.419
 21
31.7335
 31
0.0
  0
LINE
  8
0
 62
     0
 10
321.419
 20
31.7335
 30
0.0
 11
322.22
 21
31.7335
 31
0.0
  0
LINE
  8
0
 62
     0
 10
322.22
 20
31.7335
 30
0.0
 11
322.22
 21
34.8327
 31
0.0
  0
LINE
  8
0
 62
     0
 10
322.22
 20
34.8327
 30
0.0
 11
321.419
 21
34.8327
 31
0.0
  0
LINE
  8
0
 62
     0
 10
321.419
 20
34.8327
 30
0.0
 11
321.419
 21
35.833
 31
0.0
  0
LINE
  8
0
 62
     0
 10
321.419
 20
35.833
 30
0.0
 11
307.42
 21
35.833
 31
0.0
  0
LINE
  8
0
 62
     0
 10
288.37
 20
35.833
 30
0.0
 11
288.37
 21
34.8327
 31
0.0
  0
LINE
  8
0
 62
     0
 10
288.37
 20
34.8327
 30
0.0
 11
287.569
 21
34.8327
 31
0.0
  0
LINE
  8
0
 62
     0
 10
287.569
 20
34.8327
 30
0.0
 11
287.569
 21
31.7335
 31
0.0
  0
LINE
  8
0
 62
     0
 10
287.569
 20
31.7335
 30
0.0
 11
288.37
 21
31.7335
 31
0.0
  0
LINE
  8
0
 62
     0
 10
288.37
 20
31.7335
 30
0.0
 11
288.37
 21
25.9333
 31
0.0
  0
LINE
  8
0
 62
     0
 10
288.37
 20
25.9333
 30
0.0
 11
287.569
 21
25.9333
 31
0.0
  0
LINE
  8
0
 62
     0
 10
287.569
 20
25.9333
 30
0.0
 11
287.569
 21
22.8327
 31
0.0
  0
LINE
  8
0
 62
     0
 10
287.569
 20
22.8327
 30
0.0
 11
288.37
 21
22.8327
 31
0.0
  0
LINE
  8
0
 62
     0
 10
288.37
 20
22.8327
 30
0.0
 11
288.37
 21
21.8336
 31
0.0
  0
LINE
  8
0
 62
     0
 10
288.37
 20
21.8336
 30
0.0
 11
302.369
 21
21.8336
 31
0.0
  0
LINE
  8
0
 62
     0
 10
302.369
 20
21.8336
 30
0.0
 11
302.369
 21
22.8327
 31
0.0
  0
LINE
  8
0
 62
     0
 10
302.369
 20
22.8327
 30
0.0
 11
303.17
 21
22.8327
 31
0.0
  0
LINE
  8
0
 62
     0
 10
303.17
 20
22.8327
 30
0.0
 11
303.17
 21
25.9333
 31
0.0
  0
LINE
  8
0
 62
     0
 10
303.17
 20
25.9333
 30
0.0
 11
302.369
 21
25.9333
 31
0.0
  0
LINE
  8
0
 62
     0
 10
302.369
 20
25.9333
 30
0.0
 11
302.369
 21
31.7335
 31
0.0
  0
LINE
  8
0
 62
     0
 10
302.369
 20
31.7335
 30
0.0
 11
303.17
 21
31.7335
 31
0.0
  0
LINE
  8
0
 62
     0
 10
303.17
 20
31.7335
 30
0.0
 11
303.17
 21
34.8327
 31
0.0
  0
LINE
  8
0
 62
     0
 10
303.17
 20
34.8327
 30
0.0
 11
302.369
 21
34.8327
 31
0.0
  0
LINE
  8
0
 62
     0
 10
302.369
 20
34.8327
 30
0.0
 11
302.369
 21
35.833
 31
0.0
  0
LINE
  8
0
 62
     0
 10
302.369
 20
35.833
 30
0.0
 11
288.37
 21
35.833
 31
0.0
  0
LINE
  8
0
 62
     0
 10
269.32
 20
35.833
 30
0.0
 11
269.32
 21
34.8327
 31
0.0
  0
LINE
  8
0
 62
     0
 10
269.32
 20
34.8327
 30
0.0
 11
268.519
 21
34.8327
 31
0.0
  0
LINE
  8
0
 62
     0
 10
268.519
 20
34.8327
 30
0.0
 11
268.519
 21
31.7335
 31
0.0
  0
LINE
  8
0
 62
     0
 10
268.519
 20
31.7335
 30
0.0
 11
269.32
 21
31.7335
 31
0.0
  0
LINE
  8
0
 62
     0
 10
269.32
 20
31.7335
 30
0.0
 11
269.32
 21
25.9333
 31
0.0
  0
LINE
  8
0
 62
     0
 10
269.32
 20
25.9333
 30
0.0
 11
268.519
 21
25.9333
 31
0.0
  0
LINE
  8
0
 62
     0
 10
268.519
 20
25.9333
 30
0.0
 11
268.519
 21
22.8327
 31
0.0
  0
LINE
  8
0
 62
     0
 10
268.519
 20
22.8327
 30
0.0
 11
269.32
 21
22.8327
 31
0.0
  0
LINE
  8
0
 62
     0
 10
269.32
 20
22.8327
 30
0.0
 11
269.32
 21
21.8336
 31
0.0
  0
LINE
  8
0
 62
     0
 10
269.32
 20
21.8336
 30
0.0
 11
283.319
 21
21.8336
 31
0.0
  0
LINE
  8
0
 62
     0
 10
283.319
 20
21.8336
 30
0.0
 11
283.319
 21
22.8327
 31
0.0
  0
LINE
  8
0
 62
     0
 10
283.319
 20
22.8327
 30
0.0
 11
284.12
 21
22.8327
 31
0.0
  0
LINE
  8
0
 62
     0
 10
284.12
 20
22.8327
 30
0.0
 11
284.12
 21
25.9333
 31
0.0
  0
LINE
  8
0
 62
     0
 10
284.12
 20
25.9333
 30
0.0
 11
283.319
 21
25.9333
 31
0.0
  0
LINE
  8
0
 62
     0
 10
283.319
 20
25.9333
 30
0.0
 11
283.319
 21
31.7335
 31
0.0
  0
LINE
  8
0
 62
     0
 10
283.319
 20
31.7335
 30
0.0
 11
284.12
 21
31.7335
 31
0.0
  0
LINE
  8
0
 62
     0
 10
284.12
 20
31.7335
 30
0.0
 11
284.12
 21
34.8327
 31
0.0
  0
LINE
  8
0
 62
     0
 10
284.12
 20
34.8327
 30
0.0
 11
283.319
 21
34.8327
 31
0.0
  0
LINE
  8
0
 62
     0
 10
283.319
 20
34.8327
 30
0.0
 11
283.319
 21
35.833
 31
0.0
  0
LINE
  8
0
 62
     0
 10
283.319
 20
35.833
 30
0.0
 11
269.32
 21
35.833
 31
0.0
  0
LINE
  8
0
 62
     0
 10
250.27
 20
35.833
 30
0.0
 11
250.27
 21
34.8327
 31
0.0
  0
LINE
  8
0
 62
     0
 10
250.27
 20
34.8327
 30
0.0
 11
249.469
 21
34.8327
 31
0.0
  0
LINE
  8
0
 62
     0
 10
249.469
 20
34.8327
 30
0.0
 11
249.469
 21
31.7335
 31
0.0
  0
LINE
  8
0
 62
     0
 10
249.469
 20
31.7335
 30
0.0
 11
250.27
 21
31.7335
 31
0.0
  0
LINE
  8
0
 62
     0
 10
250.27
 20
31.7335
 30
0.0
 11
250.27
 21
25.9333
 31
0.0
  0
LINE
  8
0
 62
     0
 10
250.27
 20
25.9333
 30
0.0
 11
249.469
 21
25.9333
 31
0.0
  0
LINE
  8
0
 62
     0
 10
249.469
 20
25.9333
 30
0.0
 11
249.469
 21
22.8327
 31
0.0
  0
LINE
  8
0
 62
     0
 10
249.469
 20
22.8327
 30
0.0
 11
250.27
 21
22.8327
 31
0.0
  0
LINE
  8
0
 62
     0
 10
250.27
 20
22.8327
 30
0.0
 11
250.27
 21
21.8336
 31
0.0
  0
LINE
  8
0
 62
     0
 10
250.27
 20
21.8336
 30
0.0
 11
264.269
 21
21.8336
 31
0.0
  0
LINE
  8
0
 62
     0
 10
264.269
 20
21.8336
 30
0.0
 11
264.269
 21
22.8327
 31
0.0
  0
LINE
  8
0
 62
     0
 10
264.269
 20
22.8327
 30
0.0
 11
265.07
 21
22.8327
 31
0.0
  0
LINE
  8
0
 62
     0
 10
265.07
 20
22.8327
 30
0.0
 11
265.07
 21
25.9333
 31
0.0
  0
LINE
  8
0
 62
     0
 10
265.07
 20
25.9333
 30
0.0
 11
264.269
 21
25.9333
 31
0.0
  0
LINE
  8
0
 62
     0
 10
264.269
 20
25.9333
 30
0.0
 11
264.269
 21
31.7335
 31
0.0
  0
LINE
  8
0
 62
     0
 10
264.269
 20
31.7335
 30
0.0
 11
265.07
 21
31.7335
 31
0.0
  0
LINE
  8
0
 62
     0
 10
265.07
 20
31.7335
 30
0.0
 11
265.07
 21
34.8327
 31
0.0
  0
LINE
  8
0
 62
     0
 10
265.07
 20
34.8327
 30
0.0
 11
264.269
 21
34.8327
 31
0.0
  0
LINE
  8
0
 62
     0
 10
264.269
 20
34.8327
 30
0.0
 11
264.269
 21
35.833
 31
0.0
  0
LINE
  8
0
 62
     0
 10
264.269
 20
35.833
 30
0.0
 11
250.27
 21
35.833
 31
0.0
  0
LINE
  8
0
 62
     0
 10
231.22
 20
35.833
 30
0.0
 11
231.22
 21
34.8327
 31
0.0
  0
LINE
  8
0
 62
     0
 10
231.22
 20
34.8327
 30
0.0
 11
230.419
 21
34.8327
 31
0.0
  0
LINE
  8
0
 62
     0
 10
230.419
 20
34.8327
 30
0.0
 11
230.419
 21
31.7335
 31
0.0
  0
LINE
  8
0
 62
     0
 10
230.419
 20
31.7335
 30
0.0
 11
231.22
 21
31.7335
 31
0.0
  0
LINE
  8
0
 62
     0
 10
231.22
 20
31.7335
 30
0.0
 11
231.22
 21
25.9333
 31
0.0
  0
LINE
  8
0
 62
     0
 10
231.22
 20
25.9333
 30
0.0
 11
230.419
 21
25.9333
 31
0.0
  0
LINE
  8
0
 62
     0
 10
230.419
 20
25.9333
 30
0.0
 11
230.419
 21
22.8327
 31
0.0
  0
LINE
  8
0
 62
     0
 10
230.419
 20
22.8327
 30
0.0
 11
231.22
 21
22.8327
 31
0.0
  0
LINE
  8
0
 62
     0
 10
231.22
 20
22.8327
 30
0.0
 11
231.22
 21
21.8336
 31
0.0
  0
LINE
  8
0
 62
     0
 10
231.22
 20
21.8336
 30
0.0
 11
245.219
 21
21.8336
 31
0.0
  0
LINE
  8
0
 62
     0
 10
245.219
 20
21.8336
 30
0.0
 11
245.219
 21
22.8327
 31
0.0
  0
LINE
  8
0
 62
     0
 10
245.219
 20
22.8327
 30
0.0
 11
246.02
 21
22.8327
 31
0.0
  0
LINE
  8
0
 62
     0
 10
246.02
 20
22.8327
 30
0.0
 11
246.02
 21
25.9333
 31
0.0
  0
LINE
  8
0
 62
     0
 10
246.02
 20
25.9333
 30
0.0
 11
245.219
 21
25.9333
 31
0.0
  0
LINE
  8
0
 62
     0
 10
245.219
 20
25.9333
 30
0.0
 11
245.219
 21
31.7335
 31
0.0
  0
LINE
  8
0
 62
     0
 10
245.219
 20
31.7335
 30
0.0
 11
246.02
 21
31.7335
 31
0.0
  0
LINE
  8
0
 62
     0
 10
246.02
 20
31.7335
 30
0.0
 11
246.02
 21
34.8327
 31
0.0
  0
LINE
  8
0
 62
     0
 10
246.02
 20
34.8327
 30
0.0
 11
245.219
 21
34.8327
 31
0.0
  0
LINE
  8
0
 62
     0
 10
245.219
 20
34.8327
 30
0.0
 11
245.219
 21
35.833
 31
0.0
  0
LINE
  8
0
 62
     0
 10
245.219
 20
35.833
 30
0.0
 11
231.22
 21
35.833
 31
0.0
  0
LINE
  8
0
 62
     0
 10
212.17
 20
35.833
 30
0.0
 11
212.17
 21
34.8327
 31
0.0
  0
LINE
  8
0
 62
     0
 10
212.17
 20
34.8327
 30
0.0
 11
211.369
 21
34.8327
 31
0.0
  0
LINE
  8
0
 62
     0
 10
211.369
 20
34.8327
 30
0.0
 11
211.369
 21
31.7335
 31
0.0
  0
LINE
  8
0
 62
     0
 10
211.369
 20
31.7335
 30
0.0
 11
212.17
 21
31.7335
 31
0.0
  0
LINE
  8
0
 62
     0
 10
212.17
 20
31.7335
 30
0.0
 11
212.17
 21
25.9333
 31
0.0
  0
LINE
  8
0
 62
     0
 10
212.17
 20
25.9333
 30
0.0
 11
211.369
 21
25.9333
 31
0.0
  0
LINE
  8
0
 62
     0
 10
211.369
 20
25.9333
 30
0.0
 11
211.369
 21
22.8327
 31
0.0
  0
LINE
  8
0
 62
     0
 10
211.369
 20
22.8327
 30
0.0
 11
212.17
 21
22.8327
 31
0.0
  0
LINE
  8
0
 62
     0
 10
212.17
 20
22.8327
 30
0.0
 11
212.17
 21
21.8336
 31
0.0
  0
LINE
  8
0
 62
     0
 10
212.17
 20
21.8336
 30
0.0
 11
226.169
 21
21.8336
 31
0.0
  0
LINE
  8
0
 62
     0
 10
226.169
 20
21.8336
 30
0.0
 11
226.169
 21
22.8327
 31
0.0
  0
LINE
  8
0
 62
     0
 10
226.169
 20
22.8327
 30
0.0
 11
226.97
 21
22.8327
 31
0.0
  0
LINE
  8
0
 62
     0
 10
226.97
 20
22.8327
 30
0.0
 11
226.97
 21
25.9333
 31
0.0
  0
LINE
  8
0
 62
     0
 10
226.97
 20
25.9333
 30
0.0
 11
226.169
 21
25.9333
 31
0.0
  0
LINE
  8
0
 62
     0
 10
226.169
 20
25.9333
 30
0.0
 11
226.169
 21
31.7335
 31
0.0
  0
LINE
  8
0
 62
     0
 10
226.169
 20
31.7335
 30
0.0
 11
226.97
 21
31.7335
 31
0.0
  0
LINE
  8
0
 62
     0
 10
226.97
 20
31.7335
 30
0.0
 11
226.97
 21
34.8327
 31
0.0
  0
LINE
  8
0
 62
     0
 10
226.97
 20
34.8327
 30
0.0
 11
226.169
 21
34.8327
 31
0.0
  0
LINE
  8
0
 62
     0
 10
226.169
 20
34.8327
 30
0.0
 11
226.169
 21
35.833
 31
0.0
  0
LINE
  8
0
 62
     0
 10
226.169
 20
35.833
 30
0.0
 11
212.17
 21
35.833
 31
0.0
  0
LINE
  8
0
 62
     0
 10
193.12
 20
35.833
 30
0.0
 11
193.12
 21
34.8327
 31
0.0
  0
LINE
  8
0
 62
     0
 10
193.12
 20
34.8327
 30
0.0
 11
192.319
 21
34.8327
 31
0.0
  0
LINE
  8
0
 62
     0
 10
192.319
 20
34.8327
 30
0.0
 11
192.319
 21
31.7335
 31
0.0
  0
LINE
  8
0
 62
     0
 10
192.319
 20
31.7335
 30
0.0
 11
193.12
 21
31.7335
 31
0.0
  0
LINE
  8
0
 62
     0
 10
193.12
 20
31.7335
 30
0.0
 11
193.12
 21
25.9333
 31
0.0
  0
LINE
  8
0
 62
     0
 10
193.12
 20
25.9333
 30
0.0
 11
192.319
 21
25.9333
 31
0.0
  0
LINE
  8
0
 62
     0
 10
192.319
 20
25.9333
 30
0.0
 11
192.319
 21
22.8327
 31
0.0
  0
LINE
  8
0
 62
     0
 10
192.319
 20
22.8327
 30
0.0
 11
193.12
 21
22.8327
 31
0.0
  0
LINE
  8
0
 62
     0
 10
193.12
 20
22.8327
 30
0.0
 11
193.12
 21
21.8336
 31
0.0
  0
LINE
  8
0
 62
     0
 10
193.12
 20
21.8336
 30
0.0
 11
207.119
 21
21.8336
 31
0.0
  0
LINE
  8
0
 62
     0
 10
207.119
 20
21.8336
 30
0.0
 11
207.119
 21
22.8327
 31
0.0
  0
LINE
  8
0
 62
     0
 10
207.119
 20
22.8327
 30
0.0
 11
207.92
 21
22.8327
 31
0.0
  0
LINE
  8
0
 62
     0
 10
207.92
 20
22.8327
 30
0.0
 11
207.92
 21
25.9333
 31
0.0
  0
LINE
  8
0
 62
     0
 10
207.92
 20
25.9333
 30
0.0
 11
207.119
 21
25.9333
 31
0.0
  0
LINE
  8
0
 62
     0
 10
207.119
 20
25.9333
 30
0.0
 11
207.119
 21
31.7335
 31
0.0
  0
LINE
  8
0
 62
     0
 10
207.119
 20
31.7335
 30
0.0
 11
207.92
 21
31.7335
 31
0.0
  0
LINE
  8
0
 62
     0
 10
207.92
 20
31.7335
 30
0.0
 11
207.92
 21
34.8327
 31
0.0
  0
LINE
  8
0
 62
     0
 10
207.92
 20
34.8327
 30
0.0
 11
207.119
 21
34.8327
 31
0.0
  0
LINE
  8
0
 62
     0
 10
207.119
 20
34.8327
 30
0.0
 11
207.119
 21
35.833
 31
0.0
  0
LINE
  8
0
 62
     0
 10
207.119
 20
35.833
 30
0.0
 11
193.12
 21
35.833
 31
0.0
  0
LINE
  8
0
 62
     0
 10
174.07
 20
35.833
 30
0.0
 11
174.07
 21
34.8327
 31
0.0
  0
LINE
  8
0
 62
     0
 10
174.07
 20
34.8327
 30
0.0
 11
173.269
 21
34.8327
 31
0.0
  0
LINE
  8
0
 62
     0
 10
173.269
 20
34.8327
 30
0.0
 11
173.269
 21
31.7335
 31
0.0
  0
LINE
  8
0
 62
     0
 10
173.269
 20
31.7335
 30
0.0
 11
174.07
 21
31.7335
 31
0.0
  0
LINE
  8
0
 62
     0
 10
174.07
 20
31.7335
 30
0.0
 11
174.07
 21
25.9333
 31
0.0
  0
LINE
  8
0
 62
     0
 10
174.07
 20
25.9333
 30
0.0
 11
173.269
 21
25.9333
 31
0.0
  0
LINE
  8
0
 62
     0
 10
173.269
 20
25.9333
 30
0.0
 11
173.269
 21
22.8327
 31
0.0
  0
LINE
  8
0
 62
     0
 10
173.269
 20
22.8327
 30
0.0
 11
174.07
 21
22.8327
 31
0.0
  0
LINE
  8
0
 62
     0
 10
174.07
 20
22.8327
 30
0.0
 11
174.07
 21
21.8336
 31
0.0
  0
LINE
  8
0
 62
     0
 10
174.07
 20
21.8336
 30
0.0
 11
188.069
 21
21.8336
 31
0.0
  0
LINE
  8
0
 62
     0
 10
188.069
 20
21.8336
 30
0.0
 11
188.069
 21
22.8327
 31
0.0
  0
LINE
  8
0
 62
     0
 10
188.069
 20
22.8327
 30
0.0
 11
188.87
 21
22.8327
 31
0.0
  0
LINE
  8
0
 62
     0
 10
188.87
 20
22.8327
 30
0.0
 11
188.87
 21
25.9333
 31
0.0
  0
LINE
  8
0
 62
     0
 10
188.87
 20
25.9333
 30
0.0
 11
188.069
 21
25.9333
 31
0.0
  0
LINE
  8
0
 62
     0
 10
188.069
 20
25.9333
 30
0.0
 11
188.069
 21
31.7335
 31
0.0
  0
LINE
  8
0
 62
     0
 10
188.069
 20
31.7335
 30
0.0
 11
188.87
 21
31.7335
 31
0.0
  0
LINE
  8
0
 62
     0
 10
188.87
 20
31.7335
 30
0.0
 11
188.87
 21
34.8327
 31
0.0
  0
LINE
  8
0
 62
     0
 10
188.87
 20
34.8327
 30
0.0
 11
188.069
 21
34.8327
 31
0.0
  0
LINE
  8
0
 62
     0
 10
188.069
 20
34.8327
 30
0.0
 11
188.069
 21
35.833
 31
0.0
  0
LINE
  8
0
 62
     0
 10
188.069
 20
35.833
 30
0.0
 11
174.07
 21
35.833
 31
0.0
  0
LINE
  8
0
 62
     0
 10
155.02
 20
35.833
 30
0.0
 11
155.02
 21
34.8327
 31
0.0
  0
LINE
  8
0
 62
     0
 10
155.02
 20
34.8327
 30
0.0
 11
154.219
 21
34.8327
 31
0.0
  0
LINE
  8
0
 62
     0
 10
154.219
 20
34.8327
 30
0.0
 11
154.219
 21
31.7335
 31
0.0
  0
LINE
  8
0
 62
     0
 10
154.219
 20
31.7335
 30
0.0
 11
155.02
 21
31.7335
 31
0.0
  0
LINE
  8
0
 62
     0
 10
155.02
 20
31.7335
 30
0.0
 11
155.02
 21
25.9333
 31
0.0
  0
LINE
  8
0
 62
     0
 10
155.02
 20
25.9333
 30
0.0
 11
154.219
 21
25.9333
 31
0.0
  0
LINE
  8
0
 62
     0
 10
154.219
 20
25.9333
 30
0.0
 11
154.219
 21
22.8327
 31
0.0
  0
LINE
  8
0
 62
     0
 10
154.219
 20
22.8327
 30
0.0
 11
155.02
 21
22.8327
 31
0.0
  0
LINE
  8
0
 62
     0
 10
155.02
 20
22.8327
 30
0.0
 11
155.02
 21
21.8336
 31
0.0
  0
LINE
  8
0
 62
     0
 10
155.02
 20
21.8336
 30
0.0
 11
169.019
 21
21.8336
 31
0.0
  0
LINE
  8
0
 62
     0
 10
169.019
 20
21.8336
 30
0.0
 11
169.019
 21
22.8327
 31
0.0
  0
LINE
  8
0
 62
     0
 10
169.019
 20
22.8327
 30
0.0
 11
169.82
 21
22.8327
 31
0.0
  0
LINE
  8
0
 62
     0
 10
169.82
 20
22.8327
 30
0.0
 11
169.82
 21
25.9333
 31
0.0
  0
LINE
  8
0
 62
     0
 10
169.82
 20
25.9333
 30
0.0
 11
169.019
 21
25.9333
 31
0.0
  0
LINE
  8
0
 62
     0
 10
169.019
 20
25.9333
 30
0.0
 11
169.019
 21
31.7335
 31
0.0
  0
LINE
  8
0
 62
     0
 10
169.019
 20
31.7335
 30
0.0
 11
169.82
 21
31.7335
 31
0.0
  0
LINE
  8
0
 62
     0
 10
169.82
 20
31.7335
 30
0.0
 11
169.82
 21
34.8327
 31
0.0
  0
LINE
  8
0
 62
     0
 10
169.82
 20
34.8327
 30
0.0
 11
169.019
 21
34.8327
 31
0.0
  0
LINE
  8
0
 62
     0
 10
169.019
 20
34.8327
 30
0.0
 11
169.019
 21
35.833
 31
0.0
  0
LINE
  8
0
 62
     0
 10
169.019
 20
35.833
 30
0.0
 11
155.02
 21
35.833
 31
0.0
  0
LINE
  8
0
 62
     0
 10
135.97
 20
35.833
 30
0.0
 11
135.97
 21
34.8327
 31
0.0
  0
LINE
  8
0
 62
     0
 10
135.97
 20
34.8327
 30
0.0
 11
135.169
 21
34.8327
 31
0.0
  0
LINE
  8
0
 62
     0
 10
135.169
 20
34.8327
 30
0.0
 11
135.169
 21
31.7335
 31
0.0
  0
LINE
  8
0
 62
     0
 10
135.169
 20
31.7335
 30
0.0
 11
135.97
 21
31.7335
 31
0.0
  0
LINE
  8
0
 62
     0
 10
135.97
 20
31.7335
 30
0.0
 11
135.97
 21
25.9333
 31
0.0
  0
LINE
  8
0
 62
     0
 10
135.97
 20
25.9333
 30
0.0
 11
135.169
 21
25.9333
 31
0.0
  0
LINE
  8
0
 62
     0
 10
135.169
 20
25.9333
 30
0.0
 11
135.169
 21
22.8327
 31
0.0
  0
LINE
  8
0
 62
     0
 10
135.169
 20
22.8327
 30
0.0
 11
135.97
 21
22.8327
 31
0.0
  0
LINE
  8
0
 62
     0
 10
135.97
 20
22.8327
 30
0.0
 11
135.97
 21
21.8336
 31
0.0
  0
LINE
  8
0
 62
     0
 10
135.97
 20
21.8336
 30
0.0
 11
149.969
 21
21.8336
 31
0.0
  0
LINE
  8
0
 62
     0
 10
149.969
 20
21.8336
 30
0.0
 11
149.969
 21
22.8327
 31
0.0
  0
LINE
  8
0
 62
     0
 10
149.969
 20
22.8327
 30
0.0
 11
150.77
 21
22.8327
 31
0.0
  0
LINE
  8
0
 62
     0
 10
150.77
 20
22.8327
 30
0.0
 11
150.77
 21
25.9333
 31
0.0
  0
LINE
  8
0
 62
     0
 10
150.77
 20
25.9333
 30
0.0
 11
149.969
 21
25.9333
 31
0.0
  0
LINE
  8
0
 62
     0
 10
149.969
 20
25.9333
 30
0.0
 11
149.969
 21
31.7335
 31
0.0
  0
LINE
  8
0
 62
     0
 10
149.969
 20
31.7335
 30
0.0
 11
150.77
 21
31.7335
 31
0.0
  0
LINE
  8
0
 62
     0
 10
150.77
 20
31.7335
 30
0.0
 11
150.77
 21
34.8327
 31
0.0
  0
LINE
  8
0
 62
     0
 10
150.77
 20
34.8327
 30
0.0
 11
149.969
 21
34.8327
 31
0.0
  0
LINE
  8
0
 62
     0
 10
149.969
 20
34.8327
 30
0.0
 11
149.969
 21
35.833
 31
0.0
  0
LINE
  8
0
 62
     0
 10
149.969
 20
35.833
 30
0.0
 11
135.97
 21
35.833
 31
0.0
  0
LINE
  8
0
 62
     0
 10
116.918
 20
35.833
 30
0.0
 11
116.918
 21
34.8327
 31
0.0
  0
LINE
  8
0
 62
     0
 10
116.918
 20
34.8327
 30
0.0
 11
116.119
 21
34.8327
 31
0.0
  0
LINE
  8
0
 62
     0
 10
116.119
 20
34.8327
 30
0.0
 11
116.119
 21
31.7335
 31
0.0
  0
LINE
  8
0
 62
     0
 10
116.119
 20
31.7335
 30
0.0
 11
116.918
 21
31.7335
 31
0.0
  0
LINE
  8
0
 62
     0
 10
116.918
 20
31.7335
 30
0.0
 11
116.918
 21
25.9333
 31
0.0
  0
LINE
  8
0
 62
     0
 10
116.918
 20
25.9333
 30
0.0
 11
116.119
 21
25.9333
 31
0.0
  0
LINE
  8
0
 62
     0
 10
116.119
 20
25.9333
 30
0.0
 11
116.119
 21
22.8327
 31
0.0
  0
LINE
  8
0
 62
     0
 10
116.119
 20
22.8327
 30
0.0
 11
116.918
 21
22.8327
 31
0.0
  0
LINE
  8
0
 62
     0
 10
116.918
 20
22.8327
 30
0.0
 11
116.918
 21
21.8336
 31
0.0
  0
LINE
  8
0
 62
     0
 10
116.918
 20
21.8336
 30
0.0
 11
130.919
 21
21.8336
 31
0.0
  0
LINE
  8
0
 62
     0
 10
130.919
 20
21.8336
 30
0.0
 11
130.919
 21
22.8327
 31
0.0
  0
LINE
  8
0
 62
     0
 10
130.919
 20
22.8327
 30
0.0
 11
131.72
 21
22.8327
 31
0.0
  0
LINE
  8
0
 62
     0
 10
131.72
 20
22.8327
 30
0.0
 11
131.72
 21
25.9333
 31
0.0
  0
LINE
  8
0
 62
     0
 10
131.72
 20
25.9333
 30
0.0
 11
130.919
 21
25.9333
 31
0.0
  0
LINE
  8
0
 62
     0
 10
130.919
 20
25.9333
 30
0.0
 11
130.919
 21
31.7335
 31
0.0
  0
LINE
  8
0
 62
     0
 10
130.919
 20
31.7335
 30
0.0
 11
131.72
 21
31.7335
 31
0.0
  0
LINE
  8
0
 62
     0
 10
131.72
 20
31.7335
 30
0.0
 11
131.72
 21
34.8327
 31
0.0
  0
LINE
  8
0
 62
     0
 10
131.72
 20
34.8327
 30
0.0
 11
130.919
 21
34.8327
 31
0.0
  0
LINE
  8
0
 62
     0
 10
130.919
 20
34.8327
 30
0.0
 11
130.919
 21
35.833
 31
0.0
  0
LINE
  8
0
 62
     0
 10
130.919
 20
35.833
 30
0.0
 11
116.918
 21
35.833
 31
0.0
  0
LINE
  8
0
 62
     0
 10
97.8683
 20
35.833
 30
0.0
 11
97.8683
 21
34.8327
 31
0.0
  0
LINE
  8
0
 62
     0
 10
97.8683
 20
34.8327
 30
0.0
 11
97.0689
 21
34.8327
 31
0.0
  0
LINE
  8
0
 62
     0
 10
97.0689
 20
34.8327
 30
0.0
 11
97.0689
 21
31.7335
 31
0.0
  0
LINE
  8
0
 62
     0
 10
97.0689
 20
31.7335
 30
0.0
 11
97.8683
 21
31.7335
 31
0.0
  0
LINE
  8
0
 62
     0
 10
97.8683
 20
31.7335
 30
0.0
 11
97.8683
 21
25.9333
 31
0.0
  0
LINE
  8
0
 62
     0
 10
97.8683
 20
25.9333
 30
0.0
 11
97.0689
 21
25.9333
 31
0.0
  0
LINE
  8
0
 62
     0
 10
97.0689
 20
25.9333
 30
0.0
 11
97.0689
 21
22.8327
 31
0.0
  0
LINE
  8
0
 62
     0
 10
97.0689
 20
22.8327
 30
0.0
 11
97.8683
 21
22.8327
 31
0.0
  0
LINE
  8
0
 62
     0
 10
97.8683
 20
22.8327
 30
0.0
 11
97.8683
 21
21.8336
 31
0.0
  0
LINE
  8
0
 62
     0
 10
97.8683
 20
21.8336
 30
0.0
 11
111.869
 21
21.8336
 31
0.0
  0
LINE
  8
0
 62
     0
 10
111.869
 20
21.8336
 30
0.0
 11
111.869
 21
22.8327
 31
0.0
  0
LINE
  8
0
 62
     0
 10
111.869
 20
22.8327
 30
0.0
 11
112.668
 21
22.8327
 31
0.0
  0
LINE
  8
0
 62
     0
 10
112.668
 20
22.8327
 30
0.0
 11
112.668
 21
25.9333
 31
0.0
  0
LINE
  8
0
 62
     0
 10
112.668
 20
25.9333
 30
0.0
 11
111.869
 21
25.9333
 31
0.0
  0
LINE
  8
0
 62
     0
 10
111.869
 20
25.9333
 30
0.0
 11
111.869
 21
31.7335
 31
0.0
  0
LINE
  8
0
 62
     0
 10
111.869
 20
31.7335
 30
0.0
 11
112.668
 21
31.7335
 31
0.0
  0
LINE
  8
0
 62
     0
 10
112.668
 20
31.7335
 30
0.0
 11
112.668
 21
34.8327
 31
0.0
  0
LINE
  8
0
 62
     0
 10
112.668
 20
34.8327
 30
0.0
 11
111.869
 21
34.8327
 31
0.0
  0
LINE
  8
0
 62
     0
 10
111.869
 20
34.8327
 30
0.0
 11
111.869
 21
35.833
 31
0.0
  0
LINE
  8
0
 62
     0
 10
111.869
 20
35.833
 30
0.0
 11
97.8683
 21
35.833
 31
0.0
  0
LINE
  8
0
 62
     0
 10
78.8197
 20
35.833
 30
0.0
 11
78.8197
 21
34.8327
 31
0.0
  0
LINE
  8
0
 62
     0
 10
78.8197
 20
34.8327
 30
0.0
 11
78.0189
 21
34.8327
 31
0.0
  0
LINE
  8
0
 62
     0
 10
78.0189
 20
34.8327
 30
0.0
 11
78.0189
 21
31.7335
 31
0.0
  0
LINE
  8
0
 62
     0
 10
78.0189
 20
31.7335
 30
0.0
 11
78.8197
 21
31.7335
 31
0.0
  0
LINE
  8
0
 62
     0
 10
78.8197
 20
31.7335
 30
0.0
 11
78.8197
 21
25.9333
 31
0.0
  0
LINE
  8
0
 62
     0
 10
78.8197
 20
25.9333
 30
0.0
 11
78.0189
 21
25.9333
 31
0.0
  0
LINE
  8
0
 62
     0
 10
78.0189
 20
25.9333
 30
0.0
 11
78.0189
 21
22.8327
 31
0.0
  0
LINE
  8
0
 62
     0
 10
78.0189
 20
22.8327
 30
0.0
 11
78.8197
 21
22.8327
 31
0.0
  0
LINE
  8
0
 62
     0
 10
78.8197
 20
22.8327
 30
0.0
 11
78.8197
 21
21.8336
 31
0.0
  0
LINE
  8
0
 62
     0
 10
78.8197
 20
21.8336
 30
0.0
 11
92.819
 21
21.8336
 31
0.0
  0
LINE
  8
0
 62
     0
 10
92.819
 20
21.8336
 30
0.0
 11
92.819
 21
22.8327
 31
0.0
  0
LINE
  8
0
 62
     0
 10
92.819
 20
22.8327
 30
0.0
 11
93.6184
 21
22.8327
 31
0.0
  0
LINE
  8
0
 62
     0
 10
93.6184
 20
22.8327
 30
0.0
 11
93.6184
 21
25.9333
 31
0.0
  0
LINE
  8
0
 62
     0
 10
93.6184
 20
25.9333
 30
0.0
 11
92.819
 21
25.9333
 31
0.0
  0
LINE
  8
0
 62
     0
 10
92.819
 20
25.9333
 30
0.0
 11
92.819
 21
31.7335
 31
0.0
  0
LINE
  8
0
 62
     0
 10
92.819
 20
31.7335
 30
0.0
 11
93.6184
 21
31.7335
 31
0.0
  0
LINE
  8
0
 62
     0
 10
93.6184
 20
31.7335
 30
0.0
 11
93.6184
 21
34.8327
 31
0.0
  0
LINE
  8
0
 62
     0
 10
93.6184
 20
34.8327
 30
0.0
 11
92.819
 21
34.8327
 31
0.0
  0
LINE
  8
0
 62
     0
 10
92.819
 20
34.8327
 30
0.0
 11
92.819
 21
35.833
 31
0.0
  0
LINE
  8
0
 62
     0
 10
92.819
 20
35.833
 30
0.0
 11
78.8197
 21
35.833
 31
0.0
  0
LINE
  8
0
 62
     0
 10
59.7697
 20
35.833
 30
0.0
 11
59.7697
 21
34.8327
 31
0.0
  0
LINE
  8
0
 62
     0
 10
59.7697
 20
34.8327
 30
0.0
 11
58.9689
 21
34.8327
 31
0.0
  0
LINE
  8
0
 62
     0
 10
58.9689
 20
34.8327
 30
0.0
 11
58.9689
 21
31.7335
 31
0.0
  0
LINE
  8
0
 62
     0
 10
58.9689
 20
31.7335
 30
0.0
 11
59.7697
 21
31.7335
 31
0.0
  0
LINE
  8
0
 62
     0
 10
59.7697
 20
31.7335
 30
0.0
 11
59.7697
 21
25.9333
 31
0.0
  0
LINE
  8
0
 62
     0
 10
59.7697
 20
25.9333
 30
0.0
 11
58.9689
 21
25.9333
 31
0.0
  0
LINE
  8
0
 62
     0
 10
58.9689
 20
25.9333
 30
0.0
 11
58.9689
 21
22.8327
 31
0.0
  0
LINE
  8
0
 62
     0
 10
58.9689
 20
22.8327
 30
0.0
 11
59.7697
 21
22.8327
 31
0.0
  0
LINE
  8
0
 62
     0
 10
59.7697
 20
22.8327
 30
0.0
 11
59.7697
 21
21.8336
 31
0.0
  0
LINE
  8
0
 62
     0
 10
59.7697
 20
21.8336
 30
0.0
 11
73.769
 21
21.8336
 31
0.0
  0
LINE
  8
0
 62
     0
 10
73.769
 20
21.8336
 30
0.0
 11
73.769
 21
22.8327
 31
0.0
  0
LINE
  8
0
 62
     0
 10
73.769
 20
22.8327
 30
0.0
 11
74.5698
 21
22.8327
 31
0.0
  0
LINE
  8
0
 62
     0
 10
74.5698
 20
22.8327
 30
0.0
 11
74.5698
 21
25.9333
 31
0.0
  0
LINE
  8
0
 62
     0
 10
74.5698
 20
25.9333
 30
0.0
 11
73.769
 21
25.9333
 31
0.0
  0
LINE
  8
0
 62
     0
 10
73.769
 20
25.9333
 30
0.0
 11
73.769
 21
31.7335
 31
0.0
  0
LINE
  8
0
 62
     0
 10
73.769
 20
31.7335
 30
0.0
 11
74.5698
 21
31.7335
 31
0.0
  0
LINE
  8
0
 62
     0
 10
74.5698
 20
31.7335
 30
0.0
 11
74.5698
 21
34.8327
 31
0.0
  0
LINE
  8
0
 62
     0
 10
74.5698
 20
34.8327
 30
0.0
 11
73.769
 21
34.8327
 31
0.0
  0
LINE
  8
0
 62
     0
 10
73.769
 20
34.8327
 30
0.0
 11
73.769
 21
35.833
 31
0.0
  0
LINE
  8
0
 62
     0
 10
73.769
 20
35.833
 30
0.0
 11
59.7697
 21
35.833
 31
0.0
  0
LINE
  8
0
 62
     0
 10
40.7197
 20
35.833
 30
0.0
 11
40.7197
 21
34.8327
 31
0.0
  0
LINE
  8
0
 62
     0
 10
40.7197
 20
34.8327
 30
0.0
 11
39.9189
 21
34.8327
 31
0.0
  0
LINE
  8
0
 62
     0
 10
39.9189
 20
34.8327
 30
0.0
 11
39.9189
 21
31.7335
 31
0.0
  0
LINE
  8
0
 62
     0
 10
39.9189
 20
31.7335
 30
0.0
 11
40.7197
 21
31.7335
 31
0.0
  0
LINE
  8
0
 62
     0
 10
40.7197
 20
31.7335
 30
0.0
 11
40.7197
 21
25.9333
 31
0.0
  0
LINE
  8
0
 62
     0
 10
40.7197
 20
25.9333
 30
0.0
 11
39.9189
 21
25.9333
 31
0.0
  0
LINE
  8
0
 62
     0
 10
39.9189
 20
25.9333
 30
0.0
 11
39.9189
 21
22.8327
 31
0.0
  0
LINE
  8
0
 62
     0
 10
39.9189
 20
22.8327
 30
0.0
 11
40.7197
 21
22.8327
 31
0.0
  0
LINE
  8
0
 62
     0
 10
40.7197
 20
22.8327
 30
0.0
 11
40.7197
 21
21.8336
 31
0.0
  0
LINE
  8
0
 62
     0
 10
40.7197
 20
21.8336
 30
0.0
 11
54.719
 21
21.8336
 31
0.0
  0
LINE
  8
0
 62
     0
 10
54.719
 20
21.8336
 30
0.0
 11
54.719
 21
22.8327
 31
0.0
  0
LINE
  8
0
 62
     0
 10
54.719
 20
22.8327
 30
0.0
 11
55.5198
 21
22.8327
 31
0.0
  0
LINE
  8
0
 62
     0
 10
55.5198
 20
22.8327
 30
0.0
 11
55.5198
 21
25.9333
 31
0.0
  0
LINE
  8
0
 62
     0
 10
55.5198
 20
25.9333
 30
0.0
 11
54.719
 21
25.9333
 31
0.0
  0
LINE
  8
0
 62
     0
 10
54.719
 20
25.9333
 30
0.0
 11
54.719
 21
31.7335
 31
0.0
  0
LINE
  8
0
 62
     0
 10
54.719
 20
31.7335
 30
0.0
 11
55.5198
 21
31.7335
 31
0.0
  0
LINE
  8
0
 62
     0
 10
55.5198
 20
31.7335
 30
0.0
 11
55.5198
 21
34.8327
 31
0.0
  0
LINE
  8
0
 62
     0
 10
55.5198
 20
34.8327
 30
0.0
 11
54.719
 21
34.8327
 31
0.0
  0
LINE
  8
0
 62
     0
 10
54.719
 20
34.8327
 30
0.0
 11
54.719
 21
35.833
 31
0.0
  0
LINE
  8
0
 62
     0
 10
54.719
 20
35.833
 30
0.0
 11
40.7197
 21
35.833
 31
0.0
  0
LINE
  8
0
 62
     0
 10
21.6697
 20
35.833
 30
0.0
 11
21.6697
 21
34.8327
 31
0.0
  0
LINE
  8
0
 62
     0
 10
21.6697
 20
34.8327
 30
0.0
 11
20.869
 21
34.8327
 31
0.0
  0
LINE
  8
0
 62
     0
 10
20.869
 20
34.8327
 30
0.0
 11
20.869
 21
31.7335
 31
0.0
  0
LINE
  8
0
 62
     0
 10
20.869
 20
31.7335
 30
0.0
 11
21.6697
 21
31.7335
 31
0.0
  0
LINE
  8
0
 62
     0
 10
21.6697
 20
31.7335
 30
0.0
 11
21.6697
 21
25.9333
 31
0.0
  0
LINE
  8
0
 62
     0
 10
21.6697
 20
25.9333
 30
0.0
 11
20.869
 21
25.9333
 31
0.0
  0
LINE
  8
0
 62
     0
 10
20.869
 20
25.9333
 30
0.0
 11
20.869
 21
22.8327
 31
0.0
  0
LINE
  8
0
 62
     0
 10
20.869
 20
22.8327
 30
0.0
 11
21.6697
 21
22.8327
 31
0.0
  0
LINE
  8
0
 62
     0
 10
21.6697
 20
22.8327
 30
0.0
 11
21.6697
 21
21.8336
 31
0.0
  0
LINE
  8
0
 62
     0
 10
21.6697
 20
21.8336
 30
0.0
 11
35.669
 21
21.8336
 31
0.0
  0
LINE
  8
0
 62
     0
 10
35.669
 20
21.8336
 30
0.0
 11
35.669
 21
22.8327
 31
0.0
  0
LINE
  8
0
 62
     0
 10
35.669
 20
22.8327
 30
0.0
 11
36.4698
 21
22.8327
 31
0.0
  0
LINE
  8
0
 62
     0
 10
36.4698
 20
22.8327
 30
0.0
 11
36.4698
 21
25.9333
 31
0.0
  0
LINE
  8
0
 62
     0
 10
36.4698
 20
25.9333
 30
0.0
 11
35.669
 21
25.9333
 31
0.0
  0
LINE
  8
0
 62
     0
 10
35.669
 20
25.9333
 30
0.0
 11
35.669
 21
31.7335
 31
0.0
  0
LINE
  8
0
 62
     0
 10
35.669
 20
31.7335
 30
0.0
 11
36.4698
 21
31.7335
 31
0.0
  0
LINE
  8
0
 62
     0
 10
36.4698
 20
31.7335
 30
0.0
 11
36.4698
 21
34.8327
 31
0.0
  0
LINE
  8
0
 62
     0
 10
36.4698
 20
34.8327
 30
0.0
 11
35.669
 21
34.8327
 31
0.0
  0
LINE
  8
0
 62
     0
 10
35.669
 20
34.8327
 30
0.0
 11
35.669
 21
35.833
 31
0.0
  0
LINE
  8
0
 62
     0
 10
35.669
 20
35.833
 30
0.0
 11
21.6697
 21
35.833
 31
0.0
  0
LINE
  8
0
 62
     0
 10
2.61965
 20
35.833
 30
0.0
 11
2.61965
 21
34.8327
 31
0.0
  0
LINE
  8
0
 62
     0
 10
2.61965
 20
34.8327
 30
0.0
 11
1.81901
 21
34.8327
 31
0.0
  0
LINE
  8
0
 62
     0
 10
1.81901
 20
34.8327
 30
0.0
 11
1.81901
 21
31.7335
 31
0.0
  0
LINE
  8
0
 62
     0
 10
1.81901
 20
31.7335
 30
0.0
 11
2.61965
 21
31.7335
 31
0.0
  0
LINE
  8
0
 62
     0
 10
2.61965
 20
31.7335
 30
0.0
 11
2.61965
 21
25.9333
 31
0.0
  0
LINE
  8
0
 62
     0
 10
2.61965
 20
25.9333
 30
0.0
 11
1.81901
 21
25.9333
 31
0.0
  0
LINE
  8
0
 62
     0
 10
1.81901
 20
25.9333
 30
0.0
 11
1.81901
 21
22.8327
 31
0.0
  0
LINE
  8
0
 62
     0
 10
1.81901
 20
22.8327
 30
0.0
 11
2.61965
 21
22.8327
 31
0.0
  0
LINE
  8
0
 62
     0
 10
2.61965
 20
22.8327
 30
0.0
 11
2.61965
 21
21.8336
 31
0.0
  0
LINE
  8
0
 62
     0
 10
2.61965
 20
21.8336
 30
0.0
 11
16.6192
 21
21.8336
 31
0.0
  0
LINE
  8
0
 62
     0
 10
16.6192
 20
21.8336
 30
0.0
 11
16.6192
 21
22.8327
 31
0.0
  0
LINE
  8
0
 62
     0
 10
16.6192
 20
22.8327
 30
0.0
 11
17.4198
 21
22.8327
 31
0.0
  0
LINE
  8
0
 62
     0
 10
17.4198
 20
22.8327
 30
0.0
 11
17.4198
 21
25.9333
 31
0.0
  0
LINE
  8
0
 62
     0
 10
17.4198
 20
25.9333
 30
0.0
 11
16.6192
 21
25.9333
 31
0.0
  0
LINE
  8
0
 62
     0
 10
16.6192
 20
25.9333
 30
0.0
 11
16.6192
 21
31.7335
 31
0.0
  0
LINE
  8
0
 62
     0
 10
16.6192
 20
31.7335
 30
0.0
 11
17.4198
 21
31.7335
 31
0.0
  0
LINE
  8
0
 62
     0
 10
17.4198
 20
31.7335
 30
0.0
 11
17.4198
 21
34.8327
 31
0.0
  0
LINE
  8
0
 62
     0
 10
17.4198
 20
34.8327
 30
0.0
 11
16.6192
 21
34.8327
 31
0.0
  0
LINE
  8
0
 62
     0
 10
16.6192
 20
34.8327
 30
0.0
 11
16.6192
 21
35.833
 31
0.0
  0
LINE
  8
0
 62
     0
 10
16.6192
 20
35.833
 30
0.0
 11
2.61965
 21
35.833
 31
0.0
  0
LINE
  8
0
 62
     0
 10
307.42
 20
54.8831
 30
0.0
 11
307.42
 21
53.8826
 31
0.0
  0
LINE
  8
0
 62
     0
 10
307.42
 20
53.8826
 30
0.0
 11
306.619
 21
53.8826
 31
0.0
  0
LINE
  8
0
 62
     0
 10
306.619
 20
53.8826
 30
0.0
 11
306.619
 21
50.7834
 31
0.0
  0
LINE
  8
0
 62
     0
 10
306.619
 20
50.7834
 30
0.0
 11
307.42
 21
50.7834
 31
0.0
  0
LINE
  8
0
 62
     0
 10
307.42
 20
50.7834
 30
0.0
 11
307.42
 21
44.9834
 31
0.0
  0
LINE
  8
0
 62
     0
 10
307.42
 20
44.9834
 30
0.0
 11
306.619
 21
44.9834
 31
0.0
  0
LINE
  8
0
 62
     0
 10
306.619
 20
44.9834
 30
0.0
 11
306.619
 21
41.8828
 31
0.0
  0
LINE
  8
0
 62
     0
 10
306.619
 20
41.8828
 30
0.0
 11
307.42
 21
41.8828
 31
0.0
  0
LINE
  8
0
 62
     0
 10
307.42
 20
41.8828
 30
0.0
 11
307.42
 21
40.8838
 31
0.0
  0
LINE
  8
0
 62
     0
 10
307.42
 20
40.8838
 30
0.0
 11
321.419
 21
40.8838
 31
0.0
  0
LINE
  8
0
 62
     0
 10
321.419
 20
40.8838
 30
0.0
 11
321.419
 21
41.8828
 31
0.0
  0
LINE
  8
0
 62
     0
 10
321.419
 20
41.8828
 30
0.0
 11
322.22
 21
41.8828
 31
0.0
  0
LINE
  8
0
 62
     0
 10
322.22
 20
41.8828
 30
0.0
 11
322.22
 21
44.9834
 31
0.0
  0
LINE
  8
0
 62
     0
 10
322.22
 20
44.9834
 30
0.0
 11
321.419
 21
44.9834
 31
0.0
  0
LINE
  8
0
 62
     0
 10
321.419
 20
44.9834
 30
0.0
 11
321.419
 21
50.7834
 31
0.0
  0
LINE
  8
0
 62
     0
 10
321.419
 20
50.7834
 30
0.0
 11
322.22
 21
50.7834
 31
0.0
  0
LINE
  8
0
 62
     0
 10
322.22
 20
50.7834
 30
0.0
 11
322.22
 21
53.8826
 31
0.0
  0
LINE
  8
0
 62
     0
 10
322.22
 20
53.8826
 30
0.0
 11
321.419
 21
53.8826
 31
0.0
  0
LINE
  8
0
 62
     0
 10
321.419
 20
53.8826
 30
0.0
 11
321.419
 21
54.8831
 31
0.0
  0
LINE
  8
0
 62
     0
 10
321.419
 20
54.8831
 30
0.0
 11
307.42
 21
54.8831
 31
0.0
  0
LINE
  8
0
 62
     0
 10
288.37
 20
54.8831
 30
0.0
 11
288.37
 21
53.8826
 31
0.0
  0
LINE
  8
0
 62
     0
 10
288.37
 20
53.8826
 30
0.0
 11
287.569
 21
53.8826
 31
0.0
  0
LINE
  8
0
 62
     0
 10
287.569
 20
53.8826
 30
0.0
 11
287.569
 21
50.7834
 31
0.0
  0
LINE
  8
0
 62
     0
 10
287.569
 20
50.7834
 30
0.0
 11
288.37
 21
50.7834
 31
0.0
  0
LINE
  8
0
 62
     0
 10
288.37
 20
50.7834
 30
0.0
 11
288.37
 21
44.9834
 31
0.0
  0
LINE
  8
0
 62
     0
 10
288.37
 20
44.9834
 30
0.0
 11
287.569
 21
44.9834
 31
0.0
  0
LINE
  8
0
 62
     0
 10
287.569
 20
44.9834
 30
0.0
 11
287.569
 21
41.8828
 31
0.0
  0
LINE
  8
0
 62
     0
 10
287.569
 20
41.8828
 30
0.0
 11
288.37
 21
41.8828
 31
0.0
  0
LINE
  8
0
 62
     0
 10
288.37
 20
41.8828
 30
0.0
 11
288.37
 21
40.8838
 31
0.0
  0
LINE
  8
0
 62
     0
 10
288.37
 20
40.8838
 30
0.0
 11
302.369
 21
40.8838
 31
0.0
  0
LINE
  8
0
 62
     0
 10
302.369
 20
40.8838
 30
0.0
 11
302.369
 21
41.8828
 31
0.0
  0
LINE
  8
0
 62
     0
 10
302.369
 20
41.8828
 30
0.0
 11
303.17
 21
41.8828
 31
0.0
  0
LINE
  8
0
 62
     0
 10
303.17
 20
41.8828
 30
0.0
 11
303.17
 21
44.9834
 31
0.0
  0
LINE
  8
0
 62
     0
 10
303.17
 20
44.9834
 30
0.0
 11
302.369
 21
44.9834
 31
0.0
  0
LINE
  8
0
 62
     0
 10
302.369
 20
44.9834
 30
0.0
 11
302.369
 21
50.7834
 31
0.0
  0
LINE
  8
0
 62
     0
 10
302.369
 20
50.7834
 30
0.0
 11
303.17
 21
50.7834
 31
0.0
  0
LINE
  8
0
 62
     0
 10
303.17
 20
50.7834
 30
0.0
 11
303.17
 21
53.8826
 31
0.0
  0
LINE
  8
0
 62
     0
 10
303.17
 20
53.8826
 30
0.0
 11
302.369
 21
53.8826
 31
0.0
  0
LINE
  8
0
 62
     0
 10
302.369
 20
53.8826
 30
0.0
 11
302.369
 21
54.8831
 31
0.0
  0
LINE
  8
0
 62
     0
 10
302.369
 20
54.8831
 30
0.0
 11
288.37
 21
54.8831
 31
0.0
  0
LINE
  8
0
 62
     0
 10
269.32
 20
54.8831
 30
0.0
 11
269.32
 21
53.8826
 31
0.0
  0
LINE
  8
0
 62
     0
 10
269.32
 20
53.8826
 30
0.0
 11
268.519
 21
53.8826
 31
0.0
  0
LINE
  8
0
 62
     0
 10
268.519
 20
53.8826
 30
0.0
 11
268.519
 21
50.7834
 31
0.0
  0
LINE
  8
0
 62
     0
 10
268.519
 20
50.7834
 30
0.0
 11
269.32
 21
50.7834
 31
0.0
  0
LINE
  8
0
 62
     0
 10
269.32
 20
50.7834
 30
0.0
 11
269.32
 21
44.9834
 31
0.0
  0
LINE
  8
0
 62
     0
 10
269.32
 20
44.9834
 30
0.0
 11
268.519
 21
44.9834
 31
0.0
  0
LINE
  8
0
 62
     0
 10
268.519
 20
44.9834
 30
0.0
 11
268.519
 21
41.8828
 31
0.0
  0
LINE
  8
0
 62
     0
 10
268.519
 20
41.8828
 30
0.0
 11
269.32
 21
41.8828
 31
0.0
  0
LINE
  8
0
 62
     0
 10
269.32
 20
41.8828
 30
0.0
 11
269.32
 21
40.8838
 31
0.0
  0
LINE
  8
0
 62
     0
 10
269.32
 20
40.8838
 30
0.0
 11
283.319
 21
40.8838
 31
0.0
  0
LINE
  8
0
 62
     0
 10
283.319
 20
40.8838
 30
0.0
 11
283.319
 21
41.8828
 31
0.0
  0
LINE
  8
0
 62
     0
 10
283.319
 20
41.8828
 30
0.0
 11
284.12
 21
41.8828
 31
0.0
  0
LINE
  8
0
 62
     0
 10
284.12
 20
41.8828
 30
0.0
 11
284.12
 21
44.9834
 31
0.0
  0
LINE
  8
0
 62
     0
 10
284.12
 20
44.9834
 30
0.0
 11
283.319
 21
44.9834
 31
0.0
  0
LINE
  8
0
 62
     0
 10
283.319
 20
44.9834
 30
0.0
 11
283.319
 21
50.7834
 31
0.0
  0
LINE
  8
0
 62
     0
 10
283.319
 20
50.7834
 30
0.0
 11
284.12
 21
50.7834
 31
0.0
  0
LINE
  8
0
 62
     0
 10
284.12
 20
50.7834
 30
0.0
 11
284.12
 21
53.8826
 31
0.0
  0
LINE
  8
0
 62
     0
 10
284.12
 20
53.8826
 30
0.0
 11
283.319
 21
53.8826
 31
0.0
  0
LINE
  8
0
 62
     0
 10
283.319
 20
53.8826
 30
0.0
 11
283.319
 21
54.8831
 31
0.0
  0
LINE
  8
0
 62
     0
 10
283.319
 20
54.8831
 30
0.0
 11
269.32
 21
54.8831
 31
0.0
  0
LINE
  8
0
 62
     0
 10
250.27
 20
54.8831
 30
0.0
 11
250.27
 21
53.8826
 31
0.0
  0
LINE
  8
0
 62
     0
 10
250.27
 20
53.8826
 30
0.0
 11
249.469
 21
53.8826
 31
0.0
  0
LINE
  8
0
 62
     0
 10
249.469
 20
53.8826
 30
0.0
 11
249.469
 21
50.7834
 31
0.0
  0
LINE
  8
0
 62
     0
 10
249.469
 20
50.7834
 30
0.0
 11
250.27
 21
50.7834
 31
0.0
  0
LINE
  8
0
 62
     0
 10
250.27
 20
50.7834
 30
0.0
 11
250.27
 21
44.9834
 31
0.0
  0
LINE
  8
0
 62
     0
 10
250.27
 20
44.9834
 30
0.0
 11
249.469
 21
44.9834
 31
0.0
  0
LINE
  8
0
 62
     0
 10
249.469
 20
44.9834
 30
0.0
 11
249.469
 21
41.8828
 31
0.0
  0
LINE
  8
0
 62
     0
 10
249.469
 20
41.8828
 30
0.0
 11
250.27
 21
41.8828
 31
0.0
  0
LINE
  8
0
 62
     0
 10
250.27
 20
41.8828
 30
0.0
 11
250.27
 21
40.8838
 31
0.0
  0
LINE
  8
0
 62
     0
 10
250.27
 20
40.8838
 30
0.0
 11
264.269
 21
40.8838
 31
0.0
  0
LINE
  8
0
 62
     0
 10
264.269
 20
40.8838
 30
0.0
 11
264.269
 21
41.8828
 31
0.0
  0
LINE
  8
0
 62
     0
 10
264.269
 20
41.8828
 30
0.0
 11
265.07
 21
41.8828
 31
0.0
  0
LINE
  8
0
 62
     0
 10
265.07
 20
41.8828
 30
0.0
 11
265.07
 21
44.9834
 31
0.0
  0
LINE
  8
0
 62
     0
 10
265.07
 20
44.9834
 30
0.0
 11
264.269
 21
44.9834
 31
0.0
  0
LINE
  8
0
 62
     0
 10
264.269
 20
44.9834
 30
0.0
 11
264.269
 21
50.7834
 31
0.0
  0
LINE
  8
0
 62
     0
 10
264.269
 20
50.7834
 30
0.0
 11
265.07
 21
50.7834
 31
0.0
  0
LINE
  8
0
 62
     0
 10
265.07
 20
50.7834
 30
0.0
 11
265.07
 21
53.8826
 31
0.0
  0
LINE
  8
0
 62
     0
 10
265.07
 20
53.8826
 30
0.0
 11
264.269
 21
53.8826
 31
0.0
  0
LINE
  8
0
 62
     0
 10
264.269
 20
53.8826
 30
0.0
 11
264.269
 21
54.8831
 31
0.0
  0
LINE
  8
0
 62
     0
 10
264.269
 20
54.8831
 30
0.0
 11
250.27
 21
54.8831
 31
0.0
  0
LINE
  8
0
 62
     0
 10
231.22
 20
54.8831
 30
0.0
 11
231.22
 21
53.8826
 31
0.0
  0
LINE
  8
0
 62
     0
 10
231.22
 20
53.8826
 30
0.0
 11
230.419
 21
53.8826
 31
0.0
  0
LINE
  8
0
 62
     0
 10
230.419
 20
53.8826
 30
0.0
 11
230.419
 21
50.7834
 31
0.0
  0
LINE
  8
0
 62
     0
 10
230.419
 20
50.7834
 30
0.0
 11
231.22
 21
50.7834
 31
0.0
  0
LINE
  8
0
 62
     0
 10
231.22
 20
50.7834
 30
0.0
 11
231.22
 21
44.9834
 31
0.0
  0
LINE
  8
0
 62
     0
 10
231.22
 20
44.9834
 30
0.0
 11
230.419
 21
44.9834
 31
0.0
  0
LINE
  8
0
 62
     0
 10
230.419
 20
44.9834
 30
0.0
 11
230.419
 21
41.8828
 31
0.0
  0
LINE
  8
0
 62
     0
 10
230.419
 20
41.8828
 30
0.0
 11
231.22
 21
41.8828
 31
0.0
  0
LINE
  8
0
 62
     0
 10
231.22
 20
41.8828
 30
0.0
 11
231.22
 21
40.8838
 31
0.0
  0
LINE
  8
0
 62
     0
 10
231.22
 20
40.8838
 30
0.0
 11
245.219
 21
40.8838
 31
0.0
  0
LINE
  8
0
 62
     0
 10
245.219
 20
40.8838
 30
0.0
 11
245.219
 21
41.8828
 31
0.0
  0
LINE
  8
0
 62
     0
 10
245.219
 20
41.8828
 30
0.0
 11
246.02
 21
41.8828
 31
0.0
  0
LINE
  8
0
 62
     0
 10
246.02
 20
41.8828
 30
0.0
 11
246.02
 21
44.9834
 31
0.0
  0
LINE
  8
0
 62
     0
 10
246.02
 20
44.9834
 30
0.0
 11
245.219
 21
44.9834
 31
0.0
  0
LINE
  8
0
 62
     0
 10
245.219
 20
44.9834
 30
0.0
 11
245.219
 21
50.7834
 31
0.0
  0
LINE
  8
0
 62
     0
 10
245.219
 20
50.7834
 30
0.0
 11
246.02
 21
50.7834
 31
0.0
  0
LINE
  8
0
 62
     0
 10
246.02
 20
50.7834
 30
0.0
 11
246.02
 21
53.8826
 31
0.0
  0
LINE
  8
0
 62
     0
 10
246.02
 20
53.8826
 30
0.0
 11
245.219
 21
53.8826
 31
0.0
  0
LINE
  8
0
 62
     0
 10
245.219
 20
53.8826
 30
0.0
 11
245.219
 21
54.8831
 31
0.0
  0
LINE
  8
0
 62
     0
 10
245.219
 20
54.8831
 30
0.0
 11
231.22
 21
54.8831
 31
0.0
  0
LINE
  8
0
 62
     0
 10
212.17
 20
54.8831
 30
0.0
 11
212.17
 21
53.8826
 31
0.0
  0
LINE
  8
0
 62
     0
 10
212.17
 20
53.8826
 30
0.0
 11
211.369
 21
53.8826
 31
0.0
  0
LINE
  8
0
 62
     0
 10
211.369
 20
53.8826
 30
0.0
 11
211.369
 21
50.7834
 31
0.0
  0
LINE
  8
0
 62
     0
 10
211.369
 20
50.7834
 30
0.0
 11
212.17
 21
50.7834
 31
0.0
  0
LINE
  8
0
 62
     0
 10
212.17
 20
50.7834
 30
0.0
 11
212.17
 21
44.9834
 31
0.0
  0
LINE
  8
0
 62
     0
 10
212.17
 20
44.9834
 30
0.0
 11
211.369
 21
44.9834
 31
0.0
  0
LINE
  8
0
 62
     0
 10
211.369
 20
44.9834
 30
0.0
 11
211.369
 21
41.8828
 31
0.0
  0
LINE
  8
0
 62
     0
 10
211.369
 20
41.8828
 30
0.0
 11
212.17
 21
41.8828
 31
0.0
  0
LINE
  8
0
 62
     0
 10
212.17
 20
41.8828
 30
0.0
 11
212.17
 21
40.8838
 31
0.0
  0
LINE
  8
0
 62
     0
 10
212.17
 20
40.8838
 30
0.0
 11
226.169
 21
40.8838
 31
0.0
  0
LINE
  8
0
 62
     0
 10
226.169
 20
40.8838
 30
0.0
 11
226.169
 21
41.8828
 31
0.0
  0
LINE
  8
0
 62
     0
 10
226.169
 20
41.8828
 30
0.0
 11
226.97
 21
41.8828
 31
0.0
  0
LINE
  8
0
 62
     0
 10
226.97
 20
41.8828
 30
0.0
 11
226.97
 21
44.9834
 31
0.0
  0
LINE
  8
0
 62
     0
 10
226.97
 20
44.9834
 30
0.0
 11
226.169
 21
44.9834
 31
0.0
  0
LINE
  8
0
 62
     0
 10
226.169
 20
44.9834
 30
0.0
 11
226.169
 21
50.7834
 31
0.0
  0
LINE
  8
0
 62
     0
 10
226.169
 20
50.7834
 30
0.0
 11
226.97
 21
50.7834
 31
0.0
  0
LINE
  8
0
 62
     0
 10
226.97
 20
50.7834
 30
0.0
 11
226.97
 21
53.8826
 31
0.0
  0
LINE
  8
0
 62
     0
 10
226.97
 20
53.8826
 30
0.0
 11
226.169
 21
53.8826
 31
0.0
  0
LINE
  8
0
 62
     0
 10
226.169
 20
53.8826
 30
0.0
 11
226.169
 21
54.8831
 31
0.0
  0
LINE
  8
0
 62
     0
 10
226.169
 20
54.8831
 30
0.0
 11
212.17
 21
54.8831
 31
0.0
  0
LINE
  8
0
 62
     0
 10
193.12
 20
54.8831
 30
0.0
 11
193.12
 21
53.8826
 31
0.0
  0
LINE
  8
0
 62
     0
 10
193.12
 20
53.8826
 30
0.0
 11
192.319
 21
53.8826
 31
0.0
  0
LINE
  8
0
 62
     0
 10
192.319
 20
53.8826
 30
0.0
 11
192.319
 21
50.7834
 31
0.0
  0
LINE
  8
0
 62
     0
 10
192.319
 20
50.7834
 30
0.0
 11
193.12
 21
50.7834
 31
0.0
  0
LINE
  8
0
 62
     0
 10
193.12
 20
50.7834
 30
0.0
 11
193.12
 21
44.9834
 31
0.0
  0
LINE
  8
0
 62
     0
 10
193.12
 20
44.9834
 30
0.0
 11
192.319
 21
44.9834
 31
0.0
  0
LINE
  8
0
 62
     0
 10
192.319
 20
44.9834
 30
0.0
 11
192.319
 21
41.8828
 31
0.0
  0
LINE
  8
0
 62
     0
 10
192.319
 20
41.8828
 30
0.0
 11
193.12
 21
41.8828
 31
0.0
  0
LINE
  8
0
 62
     0
 10
193.12
 20
41.8828
 30
0.0
 11
193.12
 21
40.8838
 31
0.0
  0
LINE
  8
0
 62
     0
 10
193.12
 20
40.8838
 30
0.0
 11
207.119
 21
40.8838
 31
0.0
  0
LINE
  8
0
 62
     0
 10
207.119
 20
40.8838
 30
0.0
 11
207.119
 21
41.8828
 31
0.0
  0
LINE
  8
0
 62
     0
 10
207.119
 20
41.8828
 30
0.0
 11
207.92
 21
41.8828
 31
0.0
  0
LINE
  8
0
 62
     0
 10
207.92
 20
41.8828
 30
0.0
 11
207.92
 21
44.9834
 31
0.0
  0
LINE
  8
0
 62
     0
 10
207.92
 20
44.9834
 30
0.0
 11
207.119
 21
44.9834
 31
0.0
  0
LINE
  8
0
 62
     0
 10
207.119
 20
44.9834
 30
0.0
 11
207.119
 21
50.7834
 31
0.0
  0
LINE
  8
0
 62
     0
 10
207.119
 20
50.7834
 30
0.0
 11
207.92
 21
50.7834
 31
0.0
  0
LINE
  8
0
 62
     0
 10
207.92
 20
50.7834
 30
0.0
 11
207.92
 21
53.8826
 31
0.0
  0
LINE
  8
0
 62
     0
 10
207.92
 20
53.8826
 30
0.0
 11
207.119
 21
53.8826
 31
0.0
  0
LINE
  8
0
 62
     0
 10
207.119
 20
53.8826
 30
0.0
 11
207.119
 21
54.8831
 31
0.0
  0
LINE
  8
0
 62
     0
 10
207.119
 20
54.8831
 30
0.0
 11
193.12
 21
54.8831
 31
0.0
  0
LINE
  8
0
 62
     0
 10
174.07
 20
54.8831
 30
0.0
 11
174.07
 21
53.8826
 31
0.0
  0
LINE
  8
0
 62
     0
 10
174.07
 20
53.8826
 30
0.0
 11
173.269
 21
53.8826
 31
0.0
  0
LINE
  8
0
 62
     0
 10
173.269
 20
53.8826
 30
0.0
 11
173.269
 21
50.7834
 31
0.0
  0
LINE
  8
0
 62
     0
 10
173.269
 20
50.7834
 30
0.0
 11
174.07
 21
50.7834
 31
0.0
  0
LINE
  8
0
 62
     0
 10
174.07
 20
50.7834
 30
0.0
 11
174.07
 21
44.9834
 31
0.0
  0
LINE
  8
0
 62
     0
 10
174.07
 20
44.9834
 30
0.0
 11
173.269
 21
44.9834
 31
0.0
  0
LINE
  8
0
 62
     0
 10
173.269
 20
44.9834
 30
0.0
 11
173.269
 21
41.8828
 31
0.0
  0
LINE
  8
0
 62
     0
 10
173.269
 20
41.8828
 30
0.0
 11
174.07
 21
41.8828
 31
0.0
  0
LINE
  8
0
 62
     0
 10
174.07
 20
41.8828
 30
0.0
 11
174.07
 21
40.8838
 31
0.0
  0
LINE
  8
0
 62
     0
 10
174.07
 20
40.8838
 30
0.0
 11
188.069
 21
40.8838
 31
0.0
  0
LINE
  8
0
 62
     0
 10
188.069
 20
40.8838
 30
0.0
 11
188.069
 21
41.8828
 31
0.0
  0
LINE
  8
0
 62
     0
 10
188.069
 20
41.8828
 30
0.0
 11
188.87
 21
41.8828
 31
0.0
  0
LINE
  8
0
 62
     0
 10
188.87
 20
41.8828
 30
0.0
 11
188.87
 21
44.9834
 31
0.0
  0
LINE
  8
0
 62
     0
 10
188.87
 20
44.9834
 30
0.0
 11
188.069
 21
44.9834
 31
0.0
  0
LINE
  8
0
 62
     0
 10
188.069
 20
44.9834
 30
0.0
 11
188.069
 21
50.7834
 31
0.0
  0
LINE
  8
0
 62
     0
 10
188.069
 20
50.7834
 30
0.0
 11
188.87
 21
50.7834
 31
0.0
  0
LINE
  8
0
 62
     0
 10
188.87
 20
50.7834
 30
0.0
 11
188.87
 21
53.8826
 31
0.0
  0
LINE
  8
0
 62
     0
 10
188.87
 20
53.8826
 30
0.0
 11
188.069
 21
53.8826
 31
0.0
  0
LINE
  8
0
 62
     0
 10
188.069
 20
53.8826
 30
0.0
 11
188.069
 21
54.8831
 31
0.0
  0
LINE
  8
0
 62
     0
 10
188.069
 20
54.8831
 30
0.0
 11
174.07
 21
54.8831
 31
0.0
  0
LINE
  8
0
 62
     0
 10
155.02
 20
54.8831
 30
0.0
 11
155.02
 21
53.8826
 31
0.0
  0
LINE
  8
0
 62
     0
 10
155.02
 20
53.8826
 30
0.0
 11
154.219
 21
53.8826
 31
0.0
  0
LINE
  8
0
 62
     0
 10
154.219
 20
53.8826
 30
0.0
 11
154.219
 21
50.7834
 31
0.0
  0
LINE
  8
0
 62
     0
 10
154.219
 20
50.7834
 30
0.0
 11
155.02
 21
50.7834
 31
0.0
  0
LINE
  8
0
 62
     0
 10
155.02
 20
50.7834
 30
0.0
 11
155.02
 21
44.9834
 31
0.0
  0
LINE
  8
0
 62
     0
 10
155.02
 20
44.9834
 30
0.0
 11
154.219
 21
44.9834
 31
0.0
  0
LINE
  8
0
 62
     0
 10
154.219
 20
44.9834
 30
0.0
 11
154.219
 21
41.8828
 31
0.0
  0
LINE
  8
0
 62
     0
 10
154.219
 20
41.8828
 30
0.0
 11
155.02
 21
41.8828
 31
0.0
  0
LINE
  8
0
 62
     0
 10
155.02
 20
41.8828
 30
0.0
 11
155.02
 21
40.8838
 31
0.0
  0
LINE
  8
0
 62
     0
 10
155.02
 20
40.8838
 30
0.0
 11
169.019
 21
40.8838
 31
0.0
  0
LINE
  8
0
 62
     0
 10
169.019
 20
40.8838
 30
0.0
 11
169.019
 21
41.8828
 31
0.0
  0
LINE
  8
0
 62
     0
 10
169.019
 20
41.8828
 30
0.0
 11
169.82
 21
41.8828
 31
0.0
  0
LINE
  8
0
 62
     0
 10
169.82
 20
41.8828
 30
0.0
 11
169.82
 21
44.9834
 31
0.0
  0
LINE
  8
0
 62
     0
 10
169.82
 20
44.9834
 30
0.0
 11
169.019
 21
44.9834
 31
0.0
  0
LINE
  8
0
 62
     0
 10
169.019
 20
44.9834
 30
0.0
 11
169.019
 21
50.7834
 31
0.0
  0
LINE
  8
0
 62
     0
 10
169.019
 20
50.7834
 30
0.0
 11
169.82
 21
50.7834
 31
0.0
  0
LINE
  8
0
 62
     0
 10
169.82
 20
50.7834
 30
0.0
 11
169.82
 21
53.8826
 31
0.0
  0
LINE
  8
0
 62
     0
 10
169.82
 20
53.8826
 30
0.0
 11
169.019
 21
53.8826
 31
0.0
  0
LINE
  8
0
 62
     0
 10
169.019
 20
53.8826
 30
0.0
 11
169.019
 21
54.8831
 31
0.0
  0
LINE
  8
0
 62
     0
 10
169.019
 20
54.8831
 30
0.0
 11
155.02
 21
54.8831
 31
0.0
  0
LINE
  8
0
 62
     0
 10
135.97
 20
54.8831
 30
0.0
 11
135.97
 21
53.8826
 31
0.0
  0
LINE
  8
0
 62
     0
 10
135.97
 20
53.8826
 30
0.0
 11
135.169
 21
53.8826
 31
0.0
  0
LINE
  8
0
 62
     0
 10
135.169
 20
53.8826
 30
0.0
 11
135.169
 21
50.7834
 31
0.0
  0
LINE
  8
0
 62
     0
 10
135.169
 20
50.7834
 30
0.0
 11
135.97
 21
50.7834
 31
0.0
  0
LINE
  8
0
 62
     0
 10
135.97
 20
50.7834
 30
0.0
 11
135.97
 21
44.9834
 31
0.0
  0
LINE
  8
0
 62
     0
 10
135.97
 20
44.9834
 30
0.0
 11
135.169
 21
44.9834
 31
0.0
  0
LINE
  8
0
 62
     0
 10
135.169
 20
44.9834
 30
0.0
 11
135.169
 21
41.8828
 31
0.0
  0
LINE
  8
0
 62
     0
 10
135.169
 20
41.8828
 30
0.0
 11
135.97
 21
41.8828
 31
0.0
  0
LINE
  8
0
 62
     0
 10
135.97
 20
41.8828
 30
0.0
 11
135.97
 21
40.8838
 31
0.0
  0
LINE
  8
0
 62
     0
 10
135.97
 20
40.8838
 30
0.0
 11
149.969
 21
40.8838
 31
0.0
  0
LINE
  8
0
 62
     0
 10
149.969
 20
40.8838
 30
0.0
 11
149.969
 21
41.8828
 31
0.0
  0
LINE
  8
0
 62
     0
 10
149.969
 20
41.8828
 30
0.0
 11
150.77
 21
41.8828
 31
0.0
  0
LINE
  8
0
 62
     0
 10
150.77
 20
41.8828
 30
0.0
 11
150.77
 21
44.9834
 31
0.0
  0
LINE
  8
0
 62
     0
 10
150.77
 20
44.9834
 30
0.0
 11
149.969
 21
44.9834
 31
0.0
  0
LINE
  8
0
 62
     0
 10
149.969
 20
44.9834
 30
0.0
 11
149.969
 21
50.7834
 31
0.0
  0
LINE
  8
0
 62
     0
 10
149.969
 20
50.7834
 30
0.0
 11
150.77
 21
50.7834
 31
0.0
  0
LINE
  8
0
 62
     0
 10
150.77
 20
50.7834
 30
0.0
 11
150.77
 21
53.8826
 31
0.0
  0
LINE
  8
0
 62
     0
 10
150.77
 20
53.8826
 30
0.0
 11
149.969
 21
53.8826
 31
0.0
  0
LINE
  8
0
 62
     0
 10
149.969
 20
53.8826
 30
0.0
 11
149.969
 21
54.8831
 31
0.0
  0
LINE
  8
0
 62
     0
 10
149.969
 20
54.8831
 30
0.0
 11
135.97
 21
54.8831
 31
0.0
  0
LINE
  8
0
 62
     0
 10
116.918
 20
54.8831
 30
0.0
 11
116.918
 21
53.8826
 31
0.0
  0
LINE
  8
0
 62
     0
 10
116.918
 20
53.8826
 30
0.0
 11
116.119
 21
53.8826
 31
0.0
  0
LINE
  8
0
 62
     0
 10
116.119
 20
53.8826
 30
0.0
 11
116.119
 21
50.7834
 31
0.0
  0
LINE
  8
0
 62
     0
 10
116.119
 20
50.7834
 30
0.0
 11
116.918
 21
50.7834
 31
0.0
  0
LINE
  8
0
 62
     0
 10
116.918
 20
50.7834
 30
0.0
 11
116.918
 21
44.9834
 31
0.0
  0
LINE
  8
0
 62
     0
 10
116.918
 20
44.9834
 30
0.0
 11
116.119
 21
44.9834
 31
0.0
  0
LINE
  8
0
 62
     0
 10
116.119
 20
44.9834
 30
0.0
 11
116.119
 21
41.8828
 31
0.0
  0
LINE
  8
0
 62
     0
 10
116.119
 20
41.8828
 30
0.0
 11
116.918
 21
41.8828
 31
0.0
  0
LINE
  8
0
 62
     0
 10
116.918
 20
41.8828
 30
0.0
 11
116.918
 21
40.8838
 31
0.0
  0
LINE
  8
0
 62
     0
 10
116.918
 20
40.8838
 30
0.0
 11
130.919
 21
40.8838
 31
0.0
  0
LINE
  8
0
 62
     0
 10
130.919
 20
40.8838
 30
0.0
 11
130.919
 21
41.8828
 31
0.0
  0
LINE
  8
0
 62
     0
 10
130.919
 20
41.8828
 30
0.0
 11
131.72
 21
41.8828
 31
0.0
  0
LINE
  8
0
 62
     0
 10
131.72
 20
41.8828
 30
0.0
 11
131.72
 21
44.9834
 31
0.0
  0
LINE
  8
0
 62
     0
 10
131.72
 20
44.9834
 30
0.0
 11
130.919
 21
44.9834
 31
0.0
  0
LINE
  8
0
 62
     0
 10
130.919
 20
44.9834
 30
0.0
 11
130.919
 21
50.7834
 31
0.0
  0
LINE
  8
0
 62
     0
 10
130.919
 20
50.7834
 30
0.0
 11
131.72
 21
50.7834
 31
0.0
  0
LINE
  8
0
 62
     0
 10
131.72
 20
50.7834
 30
0.0
 11
131.72
 21
53.8826
 31
0.0
  0
LINE
  8
0
 62
     0
 10
131.72
 20
53.8826
 30
0.0
 11
130.919
 21
53.8826
 31
0.0
  0
LINE
  8
0
 62
     0
 10
130.919
 20
53.8826
 30
0.0
 11
130.919
 21
54.8831
 31
0.0
  0
LINE
  8
0
 62
     0
 10
130.919
 20
54.8831
 30
0.0
 11
116.918
 21
54.8831
 31
0.0
  0
LINE
  8
0
 62
     0
 10
97.8683
 20
54.8831
 30
0.0
 11
97.8683
 21
53.8826
 31
0.0
  0
LINE
  8
0
 62
     0
 10
97.8683
 20
53.8826
 30
0.0
 11
97.0689
 21
53.8826
 31
0.0
  0
LINE
  8
0
 62
     0
 10
97.0689
 20
53.8826
 30
0.0
 11
97.0689
 21
50.7834
 31
0.0
  0
LINE
  8
0
 62
     0
 10
97.0689
 20
50.7834
 30
0.0
 11
97.8683
 21
50.7834
 31
0.0
  0
LINE
  8
0
 62
     0
 10
97.8683
 20
50.7834
 30
0.0
 11
97.8683
 21
44.9834
 31
0.0
  0
LINE
  8
0
 62
     0
 10
97.8683
 20
44.9834
 30
0.0
 11
97.0689
 21
44.9834
 31
0.0
  0
LINE
  8
0
 62
     0
 10
97.0689
 20
44.9834
 30
0.0
 11
97.0689
 21
41.8828
 31
0.0
  0
LINE
  8
0
 62
     0
 10
97.0689
 20
41.8828
 30
0.0
 11
97.8683
 21
41.8828
 31
0.0
  0
LINE
  8
0
 62
     0
 10
97.8683
 20
41.8828
 30
0.0
 11
97.8683
 21
40.8838
 31
0.0
  0
LINE
  8
0
 62
     0
 10
97.8683
 20
40.8838
 30
0.0
 11
111.869
 21
40.8838
 31
0.0
  0
LINE
  8
0
 62
     0
 10
111.869
 20
40.8838
 30
0.0
 11
111.869
 21
41.8828
 31
0.0
  0
LINE
  8
0
 62
     0
 10
111.869
 20
41.8828
 30
0.0
 11
112.668
 21
41.8828
 31
0.0
  0
LINE
  8
0
 62
     0
 10
112.668
 20
41.8828
 30
0.0
 11
112.668
 21
44.9834
 31
0.0
  0
LINE
  8
0
 62
     0
 10
112.668
 20
44.9834
 30
0.0
 11
111.869
 21
44.9834
 31
0.0
  0
LINE
  8
0
 62
     0
 10
111.869
 20
44.9834
 30
0.0
 11
111.869
 21
50.7834
 31
0.0
  0
LINE
  8
0
 62
     0
 10
111.869
 20
50.7834
 30
0.0
 11
112.668
 21
50.7834
 31
0.0
  0
LINE
  8
0
 62
     0
 10
112.668
 20
50.7834
 30
0.0
 11
112.668
 21
53.8826
 31
0.0
  0
LINE
  8
0
 62
     0
 10
112.668
 20
53.8826
 30
0.0
 11
111.869
 21
53.8826
 31
0.0
  0
LINE
  8
0
 62
     0
 10
111.869
 20
53.8826
 30
0.0
 11
111.869
 21
54.8831
 31
0.0
  0
LINE
  8
0
 62
     0
 10
111.869
 20
54.8831
 30
0.0
 11
97.8683
 21
54.8831
 31
0.0
  0
LINE
  8
0
 62
     0
 10
78.8197
 20
54.8831
 30
0.0
 11
78.8197
 21
53.8826
 31
0.0
  0
LINE
  8
0
 62
     0
 10
78.8197
 20
53.8826
 30
0.0
 11
78.0189
 21
53.8826
 31
0.0
  0
LINE
  8
0
 62
     0
 10
78.0189
 20
53.8826
 30
0.0
 11
78.0189
 21
50.7834
 31
0.0
  0
LINE
  8
0
 62
     0
 10
78.0189
 20
50.7834
 30
0.0
 11
78.8197
 21
50.7834
 31
0.0
  0
LINE
  8
0
 62
     0
 10
78.8197
 20
50.7834
 30
0.0
 11
78.8197
 21
44.9834
 31
0.0
  0
LINE
  8
0
 62
     0
 10
78.8197
 20
44.9834
 30
0.0
 11
78.0189
 21
44.9834
 31
0.0
  0
LINE
  8
0
 62
     0
 10
78.0189
 20
44.9834
 30
0.0
 11
78.0189
 21
41.8828
 31
0.0
  0
LINE
  8
0
 62
     0
 10
78.0189
 20
41.8828
 30
0.0
 11
78.8197
 21
41.8828
 31
0.0
  0
LINE
  8
0
 62
     0
 10
78.8197
 20
41.8828
 30
0.0
 11
78.8197
 21
40.8838
 31
0.0
  0
LINE
  8
0
 62
     0
 10
78.8197
 20
40.8838
 30
0.0
 11
92.819
 21
40.8838
 31
0.0
  0
LINE
  8
0
 62
     0
 10
92.819
 20
40.8838
 30
0.0
 11
92.819
 21
41.8828
 31
0.0
  0
LINE
  8
0
 62
     0
 10
92.819
 20
41.8828
 30
0.0
 11
93.6184
 21
41.8828
 31
0.0
  0
LINE
  8
0
 62
     0
 10
93.6184
 20
41.8828
 30
0.0
 11
93.6184
 21
44.9834
 31
0.0
  0
LINE
  8
0
 62
     0
 10
93.6184
 20
44.9834
 30
0.0
 11
92.819
 21
44.9834
 31
0.0
  0
LINE
  8
0
 62
     0
 10
92.819
 20
44.9834
 30
0.0
 11
92.819
 21
50.7834
 31
0.0
  0
LINE
  8
0
 62
     0
 10
92.819
 20
50.7834
 30
0.0
 11
93.6184
 21
50.7834
 31
0.0
  0
LINE
  8
0
 62
     0
 10
93.6184
 20
50.7834
 30
0.0
 11
93.6184
 21
53.8826
 31
0.0
  0
LINE
  8
0
 62
     0
 10
93.6184
 20
53.8826
 30
0.0
 11
92.819
 21
53.8826
 31
0.0
  0
LINE
  8
0
 62
     0
 10
92.819
 20
53.8826
 30
0.0
 11
92.819
 21
54.8831
 31
0.0
  0
LINE
  8
0
 62
     0
 10
92.819
 20
54.8831
 30
0.0
 11
78.8197
 21
54.8831
 31
0.0
  0
LINE
  8
0
 62
     0
 10
59.7697
 20
54.8831
 30
0.0
 11
59.7697
 21
53.8826
 31
0.0
  0
LINE
  8
0
 62
     0
 10
59.7697
 20
53.8826
 30
0.0
 11
58.9689
 21
53.8826
 31
0.0
  0
LINE
  8
0
 62
     0
 10
58.9689
 20
53.8826
 30
0.0
 11
58.9689
 21
50.7834
 31
0.0
  0
LINE
  8
0
 62
     0
 10
58.9689
 20
50.7834
 30
0.0
 11
59.7697
 21
50.7834
 31
0.0
  0
LINE
  8
0
 62
     0
 10
59.7697
 20
50.7834
 30
0.0
 11
59.7697
 21
44.9834
 31
0.0
  0
LINE
  8
0
 62
     0
 10
59.7697
 20
44.9834
 30
0.0
 11
58.9689
 21
44.9834
 31
0.0
  0
LINE
  8
0
 62
     0
 10
58.9689
 20
44.9834
 30
0.0
 11
58.9689
 21
41.8828
 31
0.0
  0
LINE
  8
0
 62
     0
 10
58.9689
 20
41.8828
 30
0.0
 11
59.7697
 21
41.8828
 31
0.0
  0
LINE
  8
0
 62
     0
 10
59.7697
 20
41.8828
 30
0.0
 11
59.7697
 21
40.8838
 31
0.0
  0
LINE
  8
0
 62
     0
 10
59.7697
 20
40.8838
 30
0.0
 11
73.769
 21
40.8838
 31
0.0
  0
LINE
  8
0
 62
     0
 10
73.769
 20
40.8838
 30
0.0
 11
73.769
 21
41.8828
 31
0.0
  0
LINE
  8
0
 62
     0
 10
73.769
 20
41.8828
 30
0.0
 11
74.5698
 21
41.8828
 31
0.0
  0
LINE
  8
0
 62
     0
 10
74.5698
 20
41.8828
 30
0.0
 11
74.5698
 21
44.9834
 31
0.0
  0
LINE
  8
0
 62
     0
 10
74.5698
 20
44.9834
 30
0.0
 11
73.769
 21
44.9834
 31
0.0
  0
LINE
  8
0
 62
     0
 10
73.769
 20
44.9834
 30
0.0
 11
73.769
 21
50.7834
 31
0.0
  0
LINE
  8
0
 62
     0
 10
73.769
 20
50.7834
 30
0.0
 11
74.5698
 21
50.7834
 31
0.0
  0
LINE
  8
0
 62
     0
 10
74.5698
 20
50.7834
 30
0.0
 11
74.5698
 21
53.8826
 31
0.0
  0
LINE
  8
0
 62
     0
 10
74.5698
 20
53.8826
 30
0.0
 11
73.769
 21
53.8826
 31
0.0
  0
LINE
  8
0
 62
     0
 10
73.769
 20
53.8826
 30
0.0
 11
73.769
 21
54.8831
 31
0.0
  0
LINE
  8
0
 62
     0
 10
73.769
 20
54.8831
 30
0.0
 11
59.7697
 21
54.8831
 31
0.0
  0
LINE
  8
0
 62
     0
 10
40.7197
 20
54.8831
 30
0.0
 11
40.7197
 21
53.8826
 31
0.0
  0
LINE
  8
0
 62
     0
 10
40.7197
 20
53.8826
 30
0.0
 11
39.9189
 21
53.8826
 31
0.0
  0
LINE
  8
0
 62
     0
 10
39.9189
 20
53.8826
 30
0.0
 11
39.9189
 21
50.7834
 31
0.0
  0
LINE
  8
0
 62
     0
 10
39.9189
 20
50.7834
 30
0.0
 11
40.7197
 21
50.7834
 31
0.0
  0
LINE
  8
0
 62
     0
 10
40.7197
 20
50.7834
 30
0.0
 11
40.7197
 21
44.9834
 31
0.0
  0
LINE
  8
0
 62
     0
 10
40.7197
 20
44.9834
 30
0.0
 11
39.9189
 21
44.9834
 31
0.0
  0
LINE
  8
0
 62
     0
 10
39.9189
 20
44.9834
 30
0.0
 11
39.9189
 21
41.8828
 31
0.0
  0
LINE
  8
0
 62
     0
 10
39.9189
 20
41.8828
 30
0.0
 11
40.7197
 21
41.8828
 31
0.0
  0
LINE
  8
0
 62
     0
 10
40.7197
 20
41.8828
 30
0.0
 11
40.7197
 21
40.8838
 31
0.0
  0
LINE
  8
0
 62
     0
 10
40.7197
 20
40.8838
 30
0.0
 11
54.719
 21
40.8838
 31
0.0
  0
LINE
  8
0
 62
     0
 10
54.719
 20
40.8838
 30
0.0
 11
54.719
 21
41.8828
 31
0.0
  0
LINE
  8
0
 62
     0
 10
54.719
 20
41.8828
 30
0.0
 11
55.5198
 21
41.8828
 31
0.0
  0
LINE
  8
0
 62
     0
 10
55.5198
 20
41.8828
 30
0.0
 11
55.5198
 21
44.9834
 31
0.0
  0
LINE
  8
0
 62
     0
 10
55.5198
 20
44.9834
 30
0.0
 11
54.719
 21
44.9834
 31
0.0
  0
LINE
  8
0
 62
     0
 10
54.719
 20
44.9834
 30
0.0
 11
54.719
 21
50.7834
 31
0.0
  0
LINE
  8
0
 62
     0
 10
54.719
 20
50.7834
 30
0.0
 11
55.5198
 21
50.7834
 31
0.0
  0
LINE
  8
0
 62
     0
 10
55.5198
 20
50.7834
 30
0.0
 11
55.5198
 21
53.8826
 31
0.0
  0
LINE
  8
0
 62
     0
 10
55.5198
 20
53.8826
 30
0.0
 11
54.719
 21
53.8826
 31
0.0
  0
LINE
  8
0
 62
     0
 10
54.719
 20
53.8826
 30
0.0
 11
54.719
 21
54.8831
 31
0.0
  0
LINE
  8
0
 62
     0
 10
54.719
 20
54.8831
 30
0.0
 11
40.7197
 21
54.8831
 31
0.0
  0
LINE
  8
0
 62
     0
 10
21.6697
 20
54.8831
 30
0.0
 11
21.6697
 21
53.8826
 31
0.0
  0
LINE
  8
0
 62
     0
 10
21.6697
 20
53.8826
 30
0.0
 11
20.869
 21
53.8826
 31
0.0
  0
LINE
  8
0
 62
     0
 10
20.869
 20
53.8826
 30
0.0
 11
20.869
 21
50.7834
 31
0.0
  0
LINE
  8
0
 62
     0
 10
20.869
 20
50.7834
 30
0.0
 11
21.6697
 21
50.7834
 31
0.0
  0
LINE
  8
0
 62
     0
 10
21.6697
 20
50.7834
 30
0.0
 11
21.6697
 21
44.9834
 31
0.0
  0
LINE
  8
0
 62
     0
 10
21.6697
 20
44.9834
 30
0.0
 11
20.869
 21
44.9834
 31
0.0
  0
LINE
  8
0
 62
     0
 10
20.869
 20
44.9834
 30
0.0
 11
20.869
 21
41.8828
 31
0.0
  0
LINE
  8
0
 62
     0
 10
20.869
 20
41.8828
 30
0.0
 11
21.6697
 21
41.8828
 31
0.0
  0
LINE
  8
0
 62
     0
 10
21.6697
 20
41.8828
 30
0.0
 11
21.6697
 21
40.8838
 31
0.0
  0
LINE
  8
0
 62
     0
 10
21.6697
 20
40.8838
 30
0.0
 11
35.669
 21
40.8838
 31
0.0
  0
LINE
  8
0
 62
     0
 10
35.669
 20
40.8838
 30
0.0
 11
35.669
 21
41.8828
 31
0.0
  0
LINE
  8
0
 62
     0
 10
35.669
 20
41.8828
 30
0.0
 11
36.4698
 21
41.8828
 31
0.0
  0
LINE
  8
0
 62
     0
 10
36.4698
 20
41.8828
 30
0.0
 11
36.4698
 21
44.9834
 31
0.0
  0
LINE
  8
0
 62
     0
 10
36.4698
 20
44.9834
 30
0.0
 11
35.669
 21
44.9834
 31
0.0
  0
LINE
  8
0
 62
     0
 10
35.669
 20
44.9834
 30
0.0
 11
35.669
 21
50.7834
 31
0.0
  0
LINE
  8
0
 62
     0
 10
35.669
 20
50.7834
 30
0.0
 11
36.4698
 21
50.7834
 31
0.0
  0
LINE
  8
0
 62
     0
 10
36.4698
 20
50.7834
 30
0.0
 11
36.4698
 21
53.8826
 31
0.0
  0
LINE
  8
0
 62
     0
 10
36.4698
 20
53.8826
 30
0.0
 11
35.669
 21
53.8826
 31
0.0
  0
LINE
  8
0
 62
     0
 10
35.669
 20
53.8826
 30
0.0
 11
35.669
 21
54.8831
 31
0.0
  0
LINE
  8
0
 62
     0
 10
35.669
 20
54.8831
 30
0.0
 11
21.6697
 21
54.8831
 31
0.0
  0
LINE
  8
0
 62
     0
 10
2.61965
 20
54.8831
 30
0.0
 11
2.61965
 21
53.8826
 31
0.0
  0
LINE
  8
0
 62
     0
 10
2.61965
 20
53.8826
 30
0.0
 11
1.81901
 21
53.8826
 31
0.0
  0
LINE
  8
0
 62
     0
 10
1.81901
 20
53.8826
 30
0.0
 11
1.81901
 21
50.7834
 31
0.0
  0
LINE
  8
0
 62
     0
 10
1.81901
 20
50.7834
 30
0.0
 11
2.61965
 21
50.7834
 31
0.0
  0
LINE
  8
0
 62
     0
 10
2.61965
 20
50.7834
 30
0.0
 11
2.61965
 21
44.9834
 31
0.0
  0
LINE
  8
0
 62
     0
 10
2.61965
 20
44.9834
 30
0.0
 11
1.81901
 21
44.9834
 31
0.0
  0
LINE
  8
0
 62
     0
 10
1.81901
 20
44.9834
 30
0.0
 11
1.81901
 21
41.8828
 31
0.0
  0
LINE
  8
0
 62
     0
 10
1.81901
 20
41.8828
 30
0.0
 11
2.61965
 21
41.8828
 31
0.0
  0
LINE
  8
0
 62
     0
 10
2.61965
 20
41.8828
 30
0.0
 11
2.61965
 21
40.8838
 31
0.0
  0
LINE
  8
0
 62
     0
 10
2.61965
 20
40.8838
 30
0.0
 11
16.6192
 21
40.8838
 31
0.0
  0
LINE
  8
0
 62
     0
 10
16.6192
 20
40.8838
 30
0.0
 11
16.6192
 21
41.8828
 31
0.0
  0
LINE
  8
0
 62
     0
 10
16.6192
 20
41.8828
 30
0.0
 11
17.4198
 21
41.8828
 31
0.0
  0
LINE
  8
0
 62
     0
 10
17.4198
 20
41.8828
 30
0.0
 11
17.4198
 21
44.9834
 31
0.0
  0
LINE
  8
0
 62
     0
 10
17.4198
 20
44.9834
 30
0.0
 11
16.6192
 21
44.9834
 31
0.0
  0
LINE
  8
0
 62
     0
 10
16.6192
 20
44.9834
 30
0.0
 11
16.6192
 21
50.7834
 31
0.0
  0
LINE
  8
0
 62
     0
 10
16.6192
 20
50.7834
 30
0.0
 11
17.4198
 21
50.7834
 31
0.0
  0
LINE
  8
0
 62
     0
 10
17.4198
 20
50.7834
 30
0.0
 11
17.4198
 21
53.8826
 31
0.0
  0
LINE
  8
0
 62
     0
 10
17.4198
 20
53.8826
 30
0.0
 11
16.6192
 21
53.8826
 31
0.0
  0
LINE
  8
0
 62
     0
 10
16.6192
 20
53.8826
 30
0.0
 11
16.6192
 21
54.8831
 31
0.0
  0
LINE
  8
0
 62
     0
 10
16.6192
 20
54.8831
 30
0.0
 11
2.61965
 21
54.8831
 31
0.0
  0
LINE
  8
0
 62
     0
 10
307.42
 20
73.9331
 30
0.0
 11
307.42
 21
72.9326
 31
0.0
  0
LINE
  8
0
 62
     0
 10
307.42
 20
72.9326
 30
0.0
 11
306.619
 21
72.9326
 31
0.0
  0
LINE
  8
0
 62
     0
 10
306.619
 20
72.9326
 30
0.0
 11
306.619
 21
69.8334
 31
0.0
  0
LINE
  8
0
 62
     0
 10
306.619
 20
69.8334
 30
0.0
 11
307.42
 21
69.8334
 31
0.0
  0
LINE
  8
0
 62
     0
 10
307.42
 20
69.8334
 30
0.0
 11
307.42
 21
64.0334
 31
0.0
  0
LINE
  8
0
 62
     0
 10
307.42
 20
64.0334
 30
0.0
 11
306.619
 21
64.0334
 31
0.0
  0
LINE
  8
0
 62
     0
 10
306.619
 20
64.0334
 30
0.0
 11
306.619
 21
60.9328
 31
0.0
  0
LINE
  8
0
 62
     0
 10
306.619
 20
60.9328
 30
0.0
 11
307.42
 21
60.9328
 31
0.0
  0
LINE
  8
0
 62
     0
 10
307.42
 20
60.9328
 30
0.0
 11
307.42
 21
59.9338
 31
0.0
  0
LINE
  8
0
 62
     0
 10
307.42
 20
59.9338
 30
0.0
 11
321.419
 21
59.9338
 31
0.0
  0
LINE
  8
0
 62
     0
 10
321.419
 20
59.9338
 30
0.0
 11
321.419
 21
60.9328
 31
0.0
  0
LINE
  8
0
 62
     0
 10
321.419
 20
60.9328
 30
0.0
 11
322.22
 21
60.9328
 31
0.0
  0
LINE
  8
0
 62
     0
 10
322.22
 20
60.9328
 30
0.0
 11
322.22
 21
64.0334
 31
0.0
  0
LINE
  8
0
 62
     0
 10
322.22
 20
64.0334
 30
0.0
 11
321.419
 21
64.0334
 31
0.0
  0
LINE
  8
0
 62
     0
 10
321.419
 20
64.0334
 30
0.0
 11
321.419
 21
69.8334
 31
0.0
  0
LINE
  8
0
 62
     0
 10
321.419
 20
69.8334
 30
0.0
 11
322.22
 21
69.8334
 31
0.0
  0
LINE
  8
0
 62
     0
 10
322.22
 20
69.8334
 30
0.0
 11
322.22
 21
72.9326
 31
0.0
  0
LINE
  8
0
 62
     0
 10
322.22
 20
72.9326
 30
0.0
 11
321.419
 21
72.9326
 31
0.0
  0
LINE
  8
0
 62
     0
 10
321.419
 20
72.9326
 30
0.0
 11
321.419
 21
73.9331
 31
0.0
  0
LINE
  8
0
 62
     0
 10
321.419
 20
73.9331
 30
0.0
 11
307.42
 21
73.9331
 31
0.0
  0
LINE
  8
0
 62
     0
 10
288.37
 20
73.9331
 30
0.0
 11
288.37
 21
72.9326
 31
0.0
  0
LINE
  8
0
 62
     0
 10
288.37
 20
72.9326
 30
0.0
 11
287.569
 21
72.9326
 31
0.0
  0
LINE
  8
0
 62
     0
 10
287.569
 20
72.9326
 30
0.0
 11
287.569
 21
69.8334
 31
0.0
  0
LINE
  8
0
 62
     0
 10
287.569
 20
69.8334
 30
0.0
 11
288.37
 21
69.8334
 31
0.0
  0
LINE
  8
0
 62
     0
 10
288.37
 20
69.8334
 30
0.0
 11
288.37
 21
64.0334
 31
0.0
  0
LINE
  8
0
 62
     0
 10
288.37
 20
64.0334
 30
0.0
 11
287.569
 21
64.0334
 31
0.0
  0
LINE
  8
0
 62
     0
 10
287.569
 20
64.0334
 30
0.0
 11
287.569
 21
60.9328
 31
0.0
  0
LINE
  8
0
 62
     0
 10
287.569
 20
60.9328
 30
0.0
 11
288.37
 21
60.9328
 31
0.0
  0
LINE
  8
0
 62
     0
 10
288.37
 20
60.9328
 30
0.0
 11
288.37
 21
59.9338
 31
0.0
  0
LINE
  8
0
 62
     0
 10
288.37
 20
59.9338
 30
0.0
 11
302.369
 21
59.9338
 31
0.0
  0
LINE
  8
0
 62
     0
 10
302.369
 20
59.9338
 30
0.0
 11
302.369
 21
60.9328
 31
0.0
  0
LINE
  8
0
 62
     0
 10
302.369
 20
60.9328
 30
0.0
 11
303.17
 21
60.9328
 31
0.0
  0
LINE
  8
0
 62
     0
 10
303.17
 20
60.9328
 30
0.0
 11
303.17
 21
64.0334
 31
0.0
  0
LINE
  8
0
 62
     0
 10
303.17
 20
64.0334
 30
0.0
 11
302.369
 21
64.0334
 31
0.0
  0
LINE
  8
0
 62
     0
 10
302.369
 20
64.0334
 30
0.0
 11
302.369
 21
69.8334
 31
0.0
  0
LINE
  8
0
 62
     0
 10
302.369
 20
69.8334
 30
0.0
 11
303.17
 21
69.8334
 31
0.0
  0
LINE
  8
0
 62
     0
 10
303.17
 20
69.8334
 30
0.0
 11
303.17
 21
72.9326
 31
0.0
  0
LINE
  8
0
 62
     0
 10
303.17
 20
72.9326
 30
0.0
 11
302.369
 21
72.9326
 31
0.0
  0
LINE
  8
0
 62
     0
 10
302.369
 20
72.9326
 30
0.0
 11
302.369
 21
73.9331
 31
0.0
  0
LINE
  8
0
 62
     0
 10
302.369
 20
73.9331
 30
0.0
 11
288.37
 21
73.9331
 31
0.0
  0
LINE
  8
0
 62
     0
 10
269.32
 20
73.9331
 30
0.0
 11
269.32
 21
72.9326
 31
0.0
  0
LINE
  8
0
 62
     0
 10
269.32
 20
72.9326
 30
0.0
 11
268.519
 21
72.9326
 31
0.0
  0
LINE
  8
0
 62
     0
 10
268.519
 20
72.9326
 30
0.0
 11
268.519
 21
69.8334
 31
0.0
  0
LINE
  8
0
 62
     0
 10
268.519
 20
69.8334
 30
0.0
 11
269.32
 21
69.8334
 31
0.0
  0
LINE
  8
0
 62
     0
 10
269.32
 20
69.8334
 30
0.0
 11
269.32
 21
64.0334
 31
0.0
  0
LINE
  8
0
 62
     0
 10
269.32
 20
64.0334
 30
0.0
 11
268.519
 21
64.0334
 31
0.0
  0
LINE
  8
0
 62
     0
 10
268.519
 20
64.0334
 30
0.0
 11
268.519
 21
60.9328
 31
0.0
  0
LINE
  8
0
 62
     0
 10
268.519
 20
60.9328
 30
0.0
 11
269.32
 21
60.9328
 31
0.0
  0
LINE
  8
0
 62
     0
 10
269.32
 20
60.9328
 30
0.0
 11
269.32
 21
59.9338
 31
0.0
  0
LINE
  8
0
 62
     0
 10
269.32
 20
59.9338
 30
0.0
 11
283.319
 21
59.9338
 31
0.0
  0
LINE
  8
0
 62
     0
 10
283.319
 20
59.9338
 30
0.0
 11
283.319
 21
60.9328
 31
0.0
  0
LINE
  8
0
 62
     0
 10
283.319
 20
60.9328
 30
0.0
 11
284.12
 21
60.9328
 31
0.0
  0
LINE
  8
0
 62
     0
 10
284.12
 20
60.9328
 30
0.0
 11
284.12
 21
64.0334
 31
0.0
  0
LINE
  8
0
 62
     0
 10
284.12
 20
64.0334
 30
0.0
 11
283.319
 21
64.0334
 31
0.0
  0
LINE
  8
0
 62
     0
 10
283.319
 20
64.0334
 30
0.0
 11
283.319
 21
69.8334
 31
0.0
  0
LINE
  8
0
 62
     0
 10
283.319
 20
69.8334
 30
0.0
 11
284.12
 21
69.8334
 31
0.0
  0
LINE
  8
0
 62
     0
 10
284.12
 20
69.8334
 30
0.0
 11
284.12
 21
72.9326
 31
0.0
  0
LINE
  8
0
 62
     0
 10
284.12
 20
72.9326
 30
0.0
 11
283.319
 21
72.9326
 31
0.0
  0
LINE
  8
0
 62
     0
 10
283.319
 20
72.9326
 30
0.0
 11
283.319
 21
73.9331
 31
0.0
  0
LINE
  8
0
 62
     0
 10
283.319
 20
73.9331
 30
0.0
 11
269.32
 21
73.9331
 31
0.0
  0
LINE
  8
0
 62
     0
 10
250.27
 20
73.9331
 30
0.0
 11
250.27
 21
72.9326
 31
0.0
  0
LINE
  8
0
 62
     0
 10
250.27
 20
72.9326
 30
0.0
 11
249.469
 21
72.9326
 31
0.0
  0
LINE
  8
0
 62
     0
 10
249.469
 20
72.9326
 30
0.0
 11
249.469
 21
69.8334
 31
0.0
  0
LINE
  8
0
 62
     0
 10
249.469
 20
69.8334
 30
0.0
 11
250.27
 21
69.8334
 31
0.0
  0
LINE
  8
0
 62
     0
 10
250.27
 20
69.8334
 30
0.0
 11
250.27
 21
64.0334
 31
0.0
  0
LINE
  8
0
 62
     0
 10
250.27
 20
64.0334
 30
0.0
 11
249.469
 21
64.0334
 31
0.0
  0
LINE
  8
0
 62
     0
 10
249.469
 20
64.0334
 30
0.0
 11
249.469
 21
60.9328
 31
0.0
  0
LINE
  8
0
 62
     0
 10
249.469
 20
60.9328
 30
0.0
 11
250.27
 21
60.9328
 31
0.0
  0
LINE
  8
0
 62
     0
 10
250.27
 20
60.9328
 30
0.0
 11
250.27
 21
59.9338
 31
0.0
  0
LINE
  8
0
 62
     0
 10
250.27
 20
59.9338
 30
0.0
 11
264.269
 21
59.9338
 31
0.0
  0
LINE
  8
0
 62
     0
 10
264.269
 20
59.9338
 30
0.0
 11
264.269
 21
60.9328
 31
0.0
  0
LINE
  8
0
 62
     0
 10
264.269
 20
60.9328
 30
0.0
 11
265.07
 21
60.9328
 31
0.0
  0
LINE
  8
0
 62
     0
 10
265.07
 20
60.9328
 30
0.0
 11
265.07
 21
64.0334
 31
0.0
  0
LINE
  8
0
 62
     0
 10
265.07
 20
64.0334
 30
0.0
 11
264.269
 21
64.0334
 31
0.0
  0
LINE
  8
0
 62
     0
 10
264.269
 20
64.0334
 30
0.0
 11
264.269
 21
69.8334
 31
0.0
  0
LINE
  8
0
 62
     0
 10
264.269
 20
69.8334
 30
0.0
 11
265.07
 21
69.8334
 31
0.0
  0
LINE
  8
0
 62
     0
 10
265.07
 20
69.8334
 30
0.0
 11
265.07
 21
72.9326
 31
0.0
  0
LINE
  8
0
 62
     0
 10
265.07
 20
72.9326
 30
0.0
 11
264.269
 21
72.9326
 31
0.0
  0
LINE
  8
0
 62
     0
 10
264.269
 20
72.9326
 30
0.0
 11
264.269
 21
73.9331
 31
0.0
  0
LINE
  8
0
 62
     0
 10
264.269
 20
73.9331
 30
0.0
 11
250.27
 21
73.9331
 31
0.0
  0
LINE
  8
0
 62
     0
 10
231.22
 20
73.9331
 30
0.0
 11
231.22
 21
72.9326
 31
0.0
  0
LINE
  8
0
 62
     0
 10
231.22
 20
72.9326
 30
0.0
 11
230.419
 21
72.9326
 31
0.0
  0
LINE
  8
0
 62
     0
 10
230.419
 20
72.9326
 30
0.0
 11
230.419
 21
69.8334
 31
0.0
  0
LINE
  8
0
 62
     0
 10
230.419
 20
69.8334
 30
0.0
 11
231.22
 21
69.8334
 31
0.0
  0
LINE
  8
0
 62
     0
 10
231.22
 20
69.8334
 30
0.0
 11
231.22
 21
64.0334
 31
0.0
  0
LINE
  8
0
 62
     0
 10
231.22
 20
64.0334
 30
0.0
 11
230.419
 21
64.0334
 31
0.0
  0
LINE
  8
0
 62
     0
 10
230.419
 20
64.0334
 30
0.0
 11
230.419
 21
60.9328
 31
0.0
  0
LINE
  8
0
 62
     0
 10
230.419
 20
60.9328
 30
0.0
 11
231.22
 21
60.9328
 31
0.0
  0
LINE
  8
0
 62
     0
 10
231.22
 20
60.9328
 30
0.0
 11
231.22
 21
59.9338
 31
0.0
  0
LINE
  8
0
 62
     0
 10
231.22
 20
59.9338
 30
0.0
 11
245.219
 21
59.9338
 31
0.0
  0
LINE
  8
0
 62
     0
 10
245.219
 20
59.9338
 30
0.0
 11
245.219
 21
60.9328
 31
0.0
  0
LINE
  8
0
 62
     0
 10
245.219
 20
60.9328
 30
0.0
 11
246.02
 21
60.9328
 31
0.0
  0
LINE
  8
0
 62
     0
 10
246.02
 20
60.9328
 30
0.0
 11
246.02
 21
64.0334
 31
0.0
  0
LINE
  8
0
 62
     0
 10
246.02
 20
64.0334
 30
0.0
 11
245.219
 21
64.0334
 31
0.0
  0
LINE
  8
0
 62
     0
 10
245.219
 20
64.0334
 30
0.0
 11
245.219
 21
69.8334
 31
0.0
  0
LINE
  8
0
 62
     0
 10
245.219
 20
69.8334
 30
0.0
 11
246.02
 21
69.8334
 31
0.0
  0
LINE
  8
0
 62
     0
 10
246.02
 20
69.8334
 30
0.0
 11
246.02
 21
72.9326
 31
0.0
  0
LINE
  8
0
 62
     0
 10
246.02
 20
72.9326
 30
0.0
 11
245.219
 21
72.9326
 31
0.0
  0
LINE
  8
0
 62
     0
 10
245.219
 20
72.9326
 30
0.0
 11
245.219
 21
73.9331
 31
0.0
  0
LINE
  8
0
 62
     0
 10
245.219
 20
73.9331
 30
0.0
 11
231.22
 21
73.9331
 31
0.0
  0
LINE
  8
0
 62
     0
 10
212.17
 20
73.9331
 30
0.0
 11
212.17
 21
72.9326
 31
0.0
  0
LINE
  8
0
 62
     0
 10
212.17
 20
72.9326
 30
0.0
 11
211.369
 21
72.9326
 31
0.0
  0
LINE
  8
0
 62
     0
 10
211.369
 20
72.9326
 30
0.0
 11
211.369
 21
69.8334
 31
0.0
  0
LINE
  8
0
 62
     0
 10
211.369
 20
69.8334
 30
0.0
 11
212.17
 21
69.8334
 31
0.0
  0
LINE
  8
0
 62
     0
 10
212.17
 20
69.8334
 30
0.0
 11
212.17
 21
64.0334
 31
0.0
  0
LINE
  8
0
 62
     0
 10
212.17
 20
64.0334
 30
0.0
 11
211.369
 21
64.0334
 31
0.0
  0
LINE
  8
0
 62
     0
 10
211.369
 20
64.0334
 30
0.0
 11
211.369
 21
60.9328
 31
0.0
  0
LINE
  8
0
 62
     0
 10
211.369
 20
60.9328
 30
0.0
 11
212.17
 21
60.9328
 31
0.0
  0
LINE
  8
0
 62
     0
 10
212.17
 20
60.9328
 30
0.0
 11
212.17
 21
59.9338
 31
0.0
  0
LINE
  8
0
 62
     0
 10
212.17
 20
59.9338
 30
0.0
 11
226.169
 21
59.9338
 31
0.0
  0
LINE
  8
0
 62
     0
 10
226.169
 20
59.9338
 30
0.0
 11
226.169
 21
60.9328
 31
0.0
  0
LINE
  8
0
 62
     0
 10
226.169
 20
60.9328
 30
0.0
 11
226.97
 21
60.9328
 31
0.0
  0
LINE
  8
0
 62
     0
 10
226.97
 20
60.9328
 30
0.0
 11
226.97
 21
64.0334
 31
0.0
  0
LINE
  8
0
 62
     0
 10
226.97
 20
64.0334
 30
0.0
 11
226.169
 21
64.0334
 31
0.0
  0
LINE
  8
0
 62
     0
 10
226.169
 20
64.0334
 30
0.0
 11
226.169
 21
69.8334
 31
0.0
  0
LINE
  8
0
 62
     0
 10
226.169
 20
69.8334
 30
0.0
 11
226.97
 21
69.8334
 31
0.0
  0
LINE
  8
0
 62
     0
 10
226.97
 20
69.8334
 30
0.0
 11
226.97
 21
72.9326
 31
0.0
  0
LINE
  8
0
 62
     0
 10
226.97
 20
72.9326
 30
0.0
 11
226.169
 21
72.9326
 31
0.0
  0
LINE
  8
0
 62
     0
 10
226.169
 20
72.9326
 30
0.0
 11
226.169
 21
73.9331
 31
0.0
  0
LINE
  8
0
 62
     0
 10
226.169
 20
73.9331
 30
0.0
 11
212.17
 21
73.9331
 31
0.0
  0
LINE
  8
0
 62
     0
 10
193.12
 20
73.9331
 30
0.0
 11
193.12
 21
72.9326
 31
0.0
  0
LINE
  8
0
 62
     0
 10
193.12
 20
72.9326
 30
0.0
 11
192.319
 21
72.9326
 31
0.0
  0
LINE
  8
0
 62
     0
 10
192.319
 20
72.9326
 30
0.0
 11
192.319
 21
69.8334
 31
0.0
  0
LINE
  8
0
 62
     0
 10
192.319
 20
69.8334
 30
0.0
 11
193.12
 21
69.8334
 31
0.0
  0
LINE
  8
0
 62
     0
 10
193.12
 20
69.8334
 30
0.0
 11
193.12
 21
64.0334
 31
0.0
  0
LINE
  8
0
 62
     0
 10
193.12
 20
64.0334
 30
0.0
 11
192.319
 21
64.0334
 31
0.0
  0
LINE
  8
0
 62
     0
 10
192.319
 20
64.0334
 30
0.0
 11
192.319
 21
60.9328
 31
0.0
  0
LINE
  8
0
 62
     0
 10
192.319
 20
60.9328
 30
0.0
 11
193.12
 21
60.9328
 31
0.0
  0
LINE
  8
0
 62
     0
 10
193.12
 20
60.9328
 30
0.0
 11
193.12
 21
59.9338
 31
0.0
  0
LINE
  8
0
 62
     0
 10
193.12
 20
59.9338
 30
0.0
 11
207.119
 21
59.9338
 31
0.0
  0
LINE
  8
0
 62
     0
 10
207.119
 20
59.9338
 30
0.0
 11
207.119
 21
60.9328
 31
0.0
  0
LINE
  8
0
 62
     0
 10
207.119
 20
60.9328
 30
0.0
 11
207.92
 21
60.9328
 31
0.0
  0
LINE
  8
0
 62
     0
 10
207.92
 20
60.9328
 30
0.0
 11
207.92
 21
64.0334
 31
0.0
  0
LINE
  8
0
 62
     0
 10
207.92
 20
64.0334
 30
0.0
 11
207.119
 21
64.0334
 31
0.0
  0
LINE
  8
0
 62
     0
 10
207.119
 20
64.0334
 30
0.0
 11
207.119
 21
69.8334
 31
0.0
  0
LINE
  8
0
 62
     0
 10
207.119
 20
69.8334
 30
0.0
 11
207.92
 21
69.8334
 31
0.0
  0
LINE
  8
0
 62
     0
 10
207.92
 20
69.8334
 30
0.0
 11
207.92
 21
72.9326
 31
0.0
  0
LINE
  8
0
 62
     0
 10
207.92
 20
72.9326
 30
0.0
 11
207.119
 21
72.9326
 31
0.0
  0
LINE
  8
0
 62
     0
 10
207.119
 20
72.9326
 30
0.0
 11
207.119
 21
73.9331
 31
0.0
  0
LINE
  8
0
 62
     0
 10
207.119
 20
73.9331
 30
0.0
 11
193.12
 21
73.9331
 31
0.0
  0
LINE
  8
0
 62
     0
 10
174.07
 20
73.9331
 30
0.0
 11
174.07
 21
72.9326
 31
0.0
  0
LINE
  8
0
 62
     0
 10
174.07
 20
72.9326
 30
0.0
 11
173.269
 21
72.9326
 31
0.0
  0
LINE
  8
0
 62
     0
 10
173.269
 20
72.9326
 30
0.0
 11
173.269
 21
69.8334
 31
0.0
  0
LINE
  8
0
 62
     0
 10
173.269
 20
69.8334
 30
0.0
 11
174.07
 21
69.8334
 31
0.0
  0
LINE
  8
0
 62
     0
 10
174.07
 20
69.8334
 30
0.0
 11
174.07
 21
64.0334
 31
0.0
  0
LINE
  8
0
 62
     0
 10
174.07
 20
64.0334
 30
0.0
 11
173.269
 21
64.0334
 31
0.0
  0
LINE
  8
0
 62
     0
 10
173.269
 20
64.0334
 30
0.0
 11
173.269
 21
60.9328
 31
0.0
  0
LINE
  8
0
 62
     0
 10
173.269
 20
60.9328
 30
0.0
 11
174.07
 21
60.9328
 31
0.0
  0
LINE
  8
0
 62
     0
 10
174.07
 20
60.9328
 30
0.0
 11
174.07
 21
59.9338
 31
0.0
  0
LINE
  8
0
 62
     0
 10
174.07
 20
59.9338
 30
0.0
 11
188.069
 21
59.9338
 31
0.0
  0
LINE
  8
0
 62
     0
 10
188.069
 20
59.9338
 30
0.0
 11
188.069
 21
60.9328
 31
0.0
  0
LINE
  8
0
 62
     0
 10
188.069
 20
60.9328
 30
0.0
 11
188.87
 21
60.9328
 31
0.0
  0
LINE
  8
0
 62
     0
 10
188.87
 20
60.9328
 30
0.0
 11
188.87
 21
64.0334
 31
0.0
  0
LINE
  8
0
 62
     0
 10
188.87
 20
64.0334
 30
0.0
 11
188.069
 21
64.0334
 31
0.0
  0
LINE
  8
0
 62
     0
 10
188.069
 20
64.0334
 30
0.0
 11
188.069
 21
69.8334
 31
0.0
  0
LINE
  8
0
 62
     0
 10
188.069
 20
69.8334
 30
0.0
 11
188.87
 21
69.8334
 31
0.0
  0
LINE
  8
0
 62
     0
 10
188.87
 20
69.8334
 30
0.0
 11
188.87
 21
72.9326
 31
0.0
  0
LINE
  8
0
 62
     0
 10
188.87
 20
72.9326
 30
0.0
 11
188.069
 21
72.9326
 31
0.0
  0
LINE
  8
0
 62
     0
 10
188.069
 20
72.9326
 30
0.0
 11
188.069
 21
73.9331
 31
0.0
  0
LINE
  8
0
 62
     0
 10
188.069
 20
73.9331
 30
0.0
 11
174.07
 21
73.9331
 31
0.0
  0
LINE
  8
0
 62
     0
 10
155.02
 20
73.9331
 30
0.0
 11
155.02
 21
72.9326
 31
0.0
  0
LINE
  8
0
 62
     0
 10
155.02
 20
72.9326
 30
0.0
 11
154.219
 21
72.9326
 31
0.0
  0
LINE
  8
0
 62
     0
 10
154.219
 20
72.9326
 30
0.0
 11
154.219
 21
69.8334
 31
0.0
  0
LINE
  8
0
 62
     0
 10
154.219
 20
69.8334
 30
0.0
 11
155.02
 21
69.8334
 31
0.0
  0
LINE
  8
0
 62
     0
 10
155.02
 20
69.8334
 30
0.0
 11
155.02
 21
64.0334
 31
0.0
  0
LINE
  8
0
 62
     0
 10
155.02
 20
64.0334
 30
0.0
 11
154.219
 21
64.0334
 31
0.0
  0
LINE
  8
0
 62
     0
 10
154.219
 20
64.0334
 30
0.0
 11
154.219
 21
60.9328
 31
0.0
  0
LINE
  8
0
 62
     0
 10
154.219
 20
60.9328
 30
0.0
 11
155.02
 21
60.9328
 31
0.0
  0
LINE
  8
0
 62
     0
 10
155.02
 20
60.9328
 30
0.0
 11
155.02
 21
59.9338
 31
0.0
  0
LINE
  8
0
 62
     0
 10
155.02
 20
59.9338
 30
0.0
 11
169.019
 21
59.9338
 31
0.0
  0
LINE
  8
0
 62
     0
 10
169.019
 20
59.9338
 30
0.0
 11
169.019
 21
60.9328
 31
0.0
  0
LINE
  8
0
 62
     0
 10
169.019
 20
60.9328
 30
0.0
 11
169.82
 21
60.9328
 31
0.0
  0
LINE
  8
0
 62
     0
 10
169.82
 20
60.9328
 30
0.0
 11
169.82
 21
64.0334
 31
0.0
  0
LINE
  8
0
 62
     0
 10
169.82
 20
64.0334
 30
0.0
 11
169.019
 21
64.0334
 31
0.0
  0
LINE
  8
0
 62
     0
 10
169.019
 20
64.0334
 30
0.0
 11
169.019
 21
69.8334
 31
0.0
  0
LINE
  8
0
 62
     0
 10
169.019
 20
69.8334
 30
0.0
 11
169.82
 21
69.8334
 31
0.0
  0
LINE
  8
0
 62
     0
 10
169.82
 20
69.8334
 30
0.0
 11
169.82
 21
72.9326
 31
0.0
  0
LINE
  8
0
 62
     0
 10
169.82
 20
72.9326
 30
0.0
 11
169.019
 21
72.9326
 31
0.0
  0
LINE
  8
0
 62
     0
 10
169.019
 20
72.9326
 30
0.0
 11
169.019
 21
73.9331
 31
0.0
  0
LINE
  8
0
 62
     0
 10
169.019
 20
73.9331
 30
0.0
 11
155.02
 21
73.9331
 31
0.0
  0
LINE
  8
0
 62
     0
 10
135.97
 20
73.9331
 30
0.0
 11
135.97
 21
72.9326
 31
0.0
  0
LINE
  8
0
 62
     0
 10
135.97
 20
72.9326
 30
0.0
 11
135.169
 21
72.9326
 31
0.0
  0
LINE
  8
0
 62
     0
 10
135.169
 20
72.9326
 30
0.0
 11
135.169
 21
69.8334
 31
0.0
  0
LINE
  8
0
 62
     0
 10
135.169
 20
69.8334
 30
0.0
 11
135.97
 21
69.8334
 31
0.0
  0
LINE
  8
0
 62
     0
 10
135.97
 20
69.8334
 30
0.0
 11
135.97
 21
64.0334
 31
0.0
  0
LINE
  8
0
 62
     0
 10
135.97
 20
64.0334
 30
0.0
 11
135.169
 21
64.0334
 31
0.0
  0
LINE
  8
0
 62
     0
 10
135.169
 20
64.0334
 30
0.0
 11
135.169
 21
60.9328
 31
0.0
  0
LINE
  8
0
 62
     0
 10
135.169
 20
60.9328
 30
0.0
 11
135.97
 21
60.9328
 31
0.0
  0
LINE
  8
0
 62
     0
 10
135.97
 20
60.9328
 30
0.0
 11
135.97
 21
59.9338
 31
0.0
  0
LINE
  8
0
 62
     0
 10
135.97
 20
59.9338
 30
0.0
 11
149.969
 21
59.9338
 31
0.0
  0
LINE
  8
0
 62
     0
 10
149.969
 20
59.9338
 30
0.0
 11
149.969
 21
60.9328
 31
0.0
  0
LINE
  8
0
 62
     0
 10
149.969
 20
60.9328
 30
0.0
 11
150.77
 21
60.9328
 31
0.0
  0
LINE
  8
0
 62
     0
 10
150.77
 20
60.9328
 30
0.0
 11
150.77
 21
64.0334
 31
0.0
  0
LINE
  8
0
 62
     0
 10
150.77
 20
64.0334
 30
0.0
 11
149.969
 21
64.0334
 31
0.0
  0
LINE
  8
0
 62
     0
 10
149.969
 20
64.0334
 30
0.0
 11
149.969
 21
69.8334
 31
0.0
  0
LINE
  8
0
 62
     0
 10
149.969
 20
69.8334
 30
0.0
 11
150.77
 21
69.8334
 31
0.0
  0
LINE
  8
0
 62
     0
 10
150.77
 20
69.8334
 30
0.0
 11
150.77
 21
72.9326
 31
0.0
  0
LINE
  8
0
 62
     0
 10
150.77
 20
72.9326
 30
0.0
 11
149.969
 21
72.9326
 31
0.0
  0
LINE
  8
0
 62
     0
 10
149.969
 20
72.9326
 30
0.0
 11
149.969
 21
73.9331
 31
0.0
  0
LINE
  8
0
 62
     0
 10
149.969
 20
73.9331
 30
0.0
 11
135.97
 21
73.9331
 31
0.0
  0
LINE
  8
0
 62
     0
 10
116.918
 20
73.9331
 30
0.0
 11
116.918
 21
72.9326
 31
0.0
  0
LINE
  8
0
 62
     0
 10
116.918
 20
72.9326
 30
0.0
 11
116.119
 21
72.9326
 31
0.0
  0
LINE
  8
0
 62
     0
 10
116.119
 20
72.9326
 30
0.0
 11
116.119
 21
69.8334
 31
0.0
  0
LINE
  8
0
 62
     0
 10
116.119
 20
69.8334
 30
0.0
 11
116.918
 21
69.8334
 31
0.0
  0
LINE
  8
0
 62
     0
 10
116.918
 20
69.8334
 30
0.0
 11
116.918
 21
64.0334
 31
0.0
  0
LINE
  8
0
 62
     0
 10
116.918
 20
64.0334
 30
0.0
 11
116.119
 21
64.0334
 31
0.0
  0
LINE
  8
0
 62
     0
 10
116.119
 20
64.0334
 30
0.0
 11
116.119
 21
60.9328
 31
0.0
  0
LINE
  8
0
 62
     0
 10
116.119
 20
60.9328
 30
0.0
 11
116.918
 21
60.9328
 31
0.0
  0
LINE
  8
0
 62
     0
 10
116.918
 20
60.9328
 30
0.0
 11
116.918
 21
59.9338
 31
0.0
  0
LINE
  8
0
 62
     0
 10
116.918
 20
59.9338
 30
0.0
 11
130.919
 21
59.9338
 31
0.0
  0
LINE
  8
0
 62
     0
 10
130.919
 20
59.9338
 30
0.0
 11
130.919
 21
60.9328
 31
0.0
  0
LINE
  8
0
 62
     0
 10
130.919
 20
60.9328
 30
0.0
 11
131.72
 21
60.9328
 31
0.0
  0
LINE
  8
0
 62
     0
 10
131.72
 20
60.9328
 30
0.0
 11
131.72
 21
64.0334
 31
0.0
  0
LINE
  8
0
 62
     0
 10
131.72
 20
64.0334
 30
0.0
 11
130.919
 21
64.0334
 31
0.0
  0
LINE
  8
0
 62
     0
 10
130.919
 20
64.0334
 30
0.0
 11
130.919
 21
69.8334
 31
0.0
  0
LINE
  8
0
 62
     0
 10
130.919
 20
69.8334
 30
0.0
 11
131.72
 21
69.8334
 31
0.0
  0
LINE
  8
0
 62
     0
 10
131.72
 20
69.8334
 30
0.0
 11
131.72
 21
72.9326
 31
0.0
  0
LINE
  8
0
 62
     0
 10
131.72
 20
72.9326
 30
0.0
 11
130.919
 21
72.9326
 31
0.0
  0
LINE
  8
0
 62
     0
 10
130.919
 20
72.9326
 30
0.0
 11
130.919
 21
73.9331
 31
0.0
  0
LINE
  8
0
 62
     0
 10
130.919
 20
73.9331
 30
0.0
 11
116.918
 21
73.9331
 31
0.0
  0
LINE
  8
0
 62
     0
 10
97.8683
 20
73.9331
 30
0.0
 11
97.8683
 21
72.9326
 31
0.0
  0
LINE
  8
0
 62
     0
 10
97.8683
 20
72.9326
 30
0.0
 11
97.0689
 21
72.9326
 31
0.0
  0
LINE
  8
0
 62
     0
 10
97.0689
 20
72.9326
 30
0.0
 11
97.0689
 21
69.8334
 31
0.0
  0
LINE
  8
0
 62
     0
 10
97.0689
 20
69.8334
 30
0.0
 11
97.8683
 21
69.8334
 31
0.0
  0
LINE
  8
0
 62
     0
 10
97.8683
 20
69.8334
 30
0.0
 11
97.8683
 21
64.0334
 31
0.0
  0
LINE
  8
0
 62
     0
 10
97.8683
 20
64.0334
 30
0.0
 11
97.0689
 21
64.0334
 31
0.0
  0
LINE
  8
0
 62
     0
 10
97.0689
 20
64.0334
 30
0.0
 11
97.0689
 21
60.9328
 31
0.0
  0
LINE
  8
0
 62
     0
 10
97.0689
 20
60.9328
 30
0.0
 11
97.8683
 21
60.9328
 31
0.0
  0
LINE
  8
0
 62
     0
 10
97.8683
 20
60.9328
 30
0.0
 11
97.8683
 21
59.9338
 31
0.0
  0
LINE
  8
0
 62
     0
 10
97.8683
 20
59.9338
 30
0.0
 11
111.869
 21
59.9338
 31
0.0
  0
LINE
  8
0
 62
     0
 10
111.869
 20
59.9338
 30
0.0
 11
111.869
 21
60.9328
 31
0.0
  0
LINE
  8
0
 62
     0
 10
111.869
 20
60.9328
 30
0.0
 11
112.668
 21
60.9328
 31
0.0
  0
LINE
  8
0
 62
     0
 10
112.668
 20
60.9328
 30
0.0
 11
112.668
 21
64.0334
 31
0.0
  0
LINE
  8
0
 62
     0
 10
112.668
 20
64.0334
 30
0.0
 11
111.869
 21
64.0334
 31
0.0
  0
LINE
  8
0
 62
     0
 10
111.869
 20
64.0334
 30
0.0
 11
111.869
 21
69.8334
 31
0.0
  0
LINE
  8
0
 62
     0
 10
111.869
 20
69.8334
 30
0.0
 11
112.668
 21
69.8334
 31
0.0
  0
LINE
  8
0
 62
     0
 10
112.668
 20
69.8334
 30
0.0
 11
112.668
 21
72.9326
 31
0.0
  0
LINE
  8
0
 62
     0
 10
112.668
 20
72.9326
 30
0.0
 11
111.869
 21
72.9326
 31
0.0
  0
LINE
  8
0
 62
     0
 10
111.869
 20
72.9326
 30
0.0
 11
111.869
 21
73.9331
 31
0.0
  0
LINE
  8
0
 62
     0
 10
111.869
 20
73.9331
 30
0.0
 11
97.8683
 21
73.9331
 31
0.0
  0
LINE
  8
0
 62
     0
 10
78.8197
 20
73.9331
 30
0.0
 11
78.8197
 21
72.9326
 31
0.0
  0
LINE
  8
0
 62
     0
 10
78.8197
 20
72.9326
 30
0.0
 11
78.0189
 21
72.9326
 31
0.0
  0
LINE
  8
0
 62
     0
 10
78.0189
 20
72.9326
 30
0.0
 11
78.0189
 21
69.8334
 31
0.0
  0
LINE
  8
0
 62
     0
 10
78.0189
 20
69.8334
 30
0.0
 11
78.8197
 21
69.8334
 31
0.0
  0
LINE
  8
0
 62
     0
 10
78.8197
 20
69.8334
 30
0.0
 11
78.8197
 21
64.0334
 31
0.0
  0
LINE
  8
0
 62
     0
 10
78.8197
 20
64.0334
 30
0.0
 11
78.0189
 21
64.0334
 31
0.0
  0
LINE
  8
0
 62
     0
 10
78.0189
 20
64.0334
 30
0.0
 11
78.0189
 21
60.9328
 31
0.0
  0
LINE
  8
0
 62
     0
 10
78.0189
 20
60.9328
 30
0.0
 11
78.8197
 21
60.9328
 31
0.0
  0
LINE
  8
0
 62
     0
 10
78.8197
 20
60.9328
 30
0.0
 11
78.8197
 21
59.9338
 31
0.0
  0
LINE
  8
0
 62
     0
 10
78.8197
 20
59.9338
 30
0.0
 11
92.819
 21
59.9338
 31
0.0
  0
LINE
  8
0
 62
     0
 10
92.819
 20
59.9338
 30
0.0
 11
92.819
 21
60.9328
 31
0.0
  0
LINE
  8
0
 62
     0
 10
92.819
 20
60.9328
 30
0.0
 11
93.6184
 21
60.9328
 31
0.0
  0
LINE
  8
0
 62
     0
 10
93.6184
 20
60.9328
 30
0.0
 11
93.6184
 21
64.0334
 31
0.0
  0
LINE
  8
0
 62
     0
 10
93.6184
 20
64.0334
 30
0.0
 11
92.819
 21
64.0334
 31
0.0
  0
LINE
  8
0
 62
     0
 10
92.819
 20
64.0334
 30
0.0
 11
92.819
 21
69.8334
 31
0.0
  0
LINE
  8
0
 62
     0
 10
92.819
 20
69.8334
 30
0.0
 11
93.6184
 21
69.8334
 31
0.0
  0
LINE
  8
0
 62
     0
 10
93.6184
 20
69.8334
 30
0.0
 11
93.6184
 21
72.9326
 31
0.0
  0
LINE
  8
0
 62
     0
 10
93.6184
 20
72.9326
 30
0.0
 11
92.819
 21
72.9326
 31
0.0
  0
LINE
  8
0
 62
     0
 10
92.819
 20
72.9326
 30
0.0
 11
92.819
 21
73.9331
 31
0.0
  0
LINE
  8
0
 62
     0
 10
92.819
 20
73.9331
 30
0.0
 11
78.8197
 21
73.9331
 31
0.0
  0
LINE
  8
0
 62
     0
 10
59.7697
 20
73.9331
 30
0.0
 11
59.7697
 21
72.9326
 31
0.0
  0
LINE
  8
0
 62
     0
 10
59.7697
 20
72.9326
 30
0.0
 11
58.9689
 21
72.9326
 31
0.0
  0
LINE
  8
0
 62
     0
 10
58.9689
 20
72.9326
 30
0.0
 11
58.9689
 21
69.8334
 31
0.0
  0
LINE
  8
0
 62
     0
 10
58.9689
 20
69.8334
 30
0.0
 11
59.7697
 21
69.8334
 31
0.0
  0
LINE
  8
0
 62
     0
 10
59.7697
 20
69.8334
 30
0.0
 11
59.7697
 21
64.0334
 31
0.0
  0
LINE
  8
0
 62
     0
 10
59.7697
 20
64.0334
 30
0.0
 11
58.9689
 21
64.0334
 31
0.0
  0
LINE
  8
0
 62
     0
 10
58.9689
 20
64.0334
 30
0.0
 11
58.9689
 21
60.9328
 31
0.0
  0
LINE
  8
0
 62
     0
 10
58.9689
 20
60.9328
 30
0.0
 11
59.7697
 21
60.9328
 31
0.0
  0
LINE
  8
0
 62
     0
 10
59.7697
 20
60.9328
 30
0.0
 11
59.7697
 21
59.9338
 31
0.0
  0
LINE
  8
0
 62
     0
 10
59.7697
 20
59.9338
 30
0.0
 11
73.769
 21
59.9338
 31
0.0
  0
LINE
  8
0
 62
     0
 10
73.769
 20
59.9338
 30
0.0
 11
73.769
 21
60.9328
 31
0.0
  0
LINE
  8
0
 62
     0
 10
73.769
 20
60.9328
 30
0.0
 11
74.5698
 21
60.9328
 31
0.0
  0
LINE
  8
0
 62
     0
 10
74.5698
 20
60.9328
 30
0.0
 11
74.5698
 21
64.0334
 31
0.0
  0
LINE
  8
0
 62
     0
 10
74.5698
 20
64.0334
 30
0.0
 11
73.769
 21
64.0334
 31
0.0
  0
LINE
  8
0
 62
     0
 10
73.769
 20
64.0334
 30
0.0
 11
73.769
 21
69.8334
 31
0.0
  0
LINE
  8
0
 62
     0
 10
73.769
 20
69.8334
 30
0.0
 11
74.5698
 21
69.8334
 31
0.0
  0
LINE
  8
0
 62
     0
 10
74.5698
 20
69.8334
 30
0.0
 11
74.5698
 21
72.9326
 31
0.0
  0
LINE
  8
0
 62
     0
 10
74.5698
 20
72.9326
 30
0.0
 11
73.769
 21
72.9326
 31
0.0
  0
LINE
  8
0
 62
     0
 10
73.769
 20
72.9326
 30
0.0
 11
73.769
 21
73.9331
 31
0.0
  0
LINE
  8
0
 62
     0
 10
73.769
 20
73.9331
 30
0.0
 11
59.7697
 21
73.9331
 31
0.0
  0
LINE
  8
0
 62
     0
 10
40.7197
 20
73.9331
 30
0.0
 11
40.7197
 21
72.9326
 31
0.0
  0
LINE
  8
0
 62
     0
 10
40.7197
 20
72.9326
 30
0.0
 11
39.9189
 21
72.9326
 31
0.0
  0
LINE
  8
0
 62
     0
 10
39.9189
 20
72.9326
 30
0.0
 11
39.9189
 21
69.8334
 31
0.0
  0
LINE
  8
0
 62
     0
 10
39.9189
 20
69.8334
 30
0.0
 11
40.7197
 21
69.8334
 31
0.0
  0
LINE
  8
0
 62
     0
 10
40.7197
 20
69.8334
 30
0.0
 11
40.7197
 21
64.0334
 31
0.0
  0
LINE
  8
0
 62
     0
 10
40.7197
 20
64.0334
 30
0.0
 11
39.9189
 21
64.0334
 31
0.0
  0
LINE
  8
0
 62
     0
 10
39.9189
 20
64.0334
 30
0.0
 11
39.9189
 21
60.9328
 31
0.0
  0
LINE
  8
0
 62
     0
 10
39.9189
 20
60.9328
 30
0.0
 11
40.7197
 21
60.9328
 31
0.0
  0
LINE
  8
0
 62
     0
 10
40.7197
 20
60.9328
 30
0.0
 11
40.7197
 21
59.9338
 31
0.0
  0
LINE
  8
0
 62
     0
 10
40.7197
 20
59.9338
 30
0.0
 11
54.719
 21
59.9338
 31
0.0
  0
LINE
  8
0
 62
     0
 10
54.719
 20
59.9338
 30
0.0
 11
54.719
 21
60.9328
 31
0.0
  0
LINE
  8
0
 62
     0
 10
54.719
 20
60.9328
 30
0.0
 11
55.5198
 21
60.9328
 31
0.0
  0
LINE
  8
0
 62
     0
 10
55.5198
 20
60.9328
 30
0.0
 11
55.5198
 21
64.0334
 31
0.0
  0
LINE
  8
0
 62
     0
 10
55.5198
 20
64.0334
 30
0.0
 11
54.719
 21
64.0334
 31
0.0
  0
LINE
  8
0
 62
     0
 10
54.719
 20
64.0334
 30
0.0
 11
54.719
 21
69.8334
 31
0.0
  0
LINE
  8
0
 62
     0
 10
54.719
 20
69.8334
 30
0.0
 11
55.5198
 21
69.8334
 31
0.0
  0
LINE
  8
0
 62
     0
 10
55.5198
 20
69.8334
 30
0.0
 11
55.5198
 21
72.9326
 31
0.0
  0
LINE
  8
0
 62
     0
 10
55.5198
 20
72.9326
 30
0.0
 11
54.719
 21
72.9326
 31
0.0
  0
LINE
  8
0
 62
     0
 10
54.719
 20
72.9326
 30
0.0
 11
54.719
 21
73.9331
 31
0.0
  0
LINE
  8
0
 62
     0
 10
54.719
 20
73.9331
 30
0.0
 11
40.7197
 21
73.9331
 31
0.0
  0
LINE
  8
0
 62
     0
 10
21.6697
 20
73.9331
 30
0.0
 11
21.6697
 21
72.9326
 31
0.0
  0
LINE
  8
0
 62
     0
 10
21.6697
 20
72.9326
 30
0.0
 11
20.869
 21
72.9326
 31
0.0
  0
LINE
  8
0
 62
     0
 10
20.869
 20
72.9326
 30
0.0
 11
20.869
 21
69.8334
 31
0.0
  0
LINE
  8
0
 62
     0
 10
20.869
 20
69.8334
 30
0.0
 11
21.6697
 21
69.8334
 31
0.0
  0
LINE
  8
0
 62
     0
 10
21.6697
 20
69.8334
 30
0.0
 11
21.6697
 21
64.0334
 31
0.0
  0
LINE
  8
0
 62
     0
 10
21.6697
 20
64.0334
 30
0.0
 11
20.869
 21
64.0334
 31
0.0
  0
LINE
  8
0
 62
     0
 10
20.869
 20
64.0334
 30
0.0
 11
20.869
 21
60.9328
 31
0.0
  0
LINE
  8
0
 62
     0
 10
20.869
 20
60.9328
 30
0.0
 11
21.6697
 21
60.9328
 31
0.0
  0
LINE
  8
0
 62
     0
 10
21.6697
 20
60.9328
 30
0.0
 11
21.6697
 21
59.9338
 31
0.0
  0
LINE
  8
0
 62
     0
 10
21.6697
 20
59.9338
 30
0.0
 11
35.669
 21
59.9338
 31
0.0
  0
LINE
  8
0
 62
     0
 10
35.669
 20
59.9338
 30
0.0
 11
35.669
 21
60.9328
 31
0.0
  0
LINE
  8
0
 62
     0
 10
35.669
 20
60.9328
 30
0.0
 11
36.4698
 21
60.9328
 31
0.0
  0
LINE
  8
0
 62
     0
 10
36.4698
 20
60.9328
 30
0.0
 11
36.4698
 21
64.0334
 31
0.0
  0
LINE
  8
0
 62
     0
 10
36.4698
 20
64.0334
 30
0.0
 11
35.669
 21
64.0334
 31
0.0
  0
LINE
  8
0
 62
     0
 10
35.669
 20
64.0334
 30
0.0
 11
35.669
 21
69.8334
 31
0.0
  0
LINE
  8
0
 62
     0
 10
35.669
 20
69.8334
 30
0.0
 11
36.4698
 21
69.8334
 31
0.0
  0
LINE
  8
0
 62
     0
 10
36.4698
 20
69.8334
 30
0.0
 11
36.4698
 21
72.9326
 31
0.0
  0
LINE
  8
0
 62
     0
 10
36.4698
 20
72.9326
 30
0.0
 11
35.669
 21
72.9326
 31
0.0
  0
LINE
  8
0
 62
     0
 10
35.669
 20
72.9326
 30
0.0
 11
35.669
 21
73.9331
 31
0.0
  0
LINE
  8
0
 62
     0
 10
35.669
 20
73.9331
 30
0.0
 11
21.6697
 21
73.9331
 31
0.0
  0
LINE
  8
0
 62
     0
 10
2.61965
 20
73.9331
 30
0.0
 11
2.61965
 21
72.9326
 31
0.0
  0
LINE
  8
0
 62
     0
 10
2.61965
 20
72.9326
 30
0.0
 11
1.81901
 21
72.9326
 31
0.0
  0
LINE
  8
0
 62
     0
 10
1.81901
 20
72.9326
 30
0.0
 11
1.81901
 21
69.8334
 31
0.0
  0
LINE
  8
0
 62
     0
 10
1.81901
 20
69.8334
 30
0.0
 11
2.61965
 21
69.8334
 31
0.0
  0
LINE
  8
0
 62
     0
 10
2.61965
 20
69.8334
 30
0.0
 11
2.61965
 21
64.0334
 31
0.0
  0
LINE
  8
0
 62
     0
 10
2.61965
 20
64.0334
 30
0.0
 11
1.81901
 21
64.0334
 31
0.0
  0
LINE
  8
0
 62
     0
 10
1.81901
 20
64.0334
 30
0.0
 11
1.81901
 21
60.9328
 31
0.0
  0
LINE
  8
0
 62
     0
 10
1.81901
 20
60.9328
 30
0.0
 11
2.61965
 21
60.9328
 31
0.0
  0
LINE
  8
0
 62
     0
 10
2.61965
 20
60.9328
 30
0.0
 11
2.61965
 21
59.9338
 31
0.0
  0
LINE
  8
0
 62
     0
 10
2.61965
 20
59.9338
 30
0.0
 11
16.6192
 21
59.9338
 31
0.0
  0
LINE
  8
0
 62
     0
 10
16.6192
 20
59.9338
 30
0.0
 11
16.6192
 21
60.9328
 31
0.0
  0
LINE
  8
0
 62
     0
 10
16.6192
 20
60.9328
 30
0.0
 11
17.4198
 21
60.9328
 31
0.0
  0
LINE
  8
0
 62
     0
 10
17.4198
 20
60.9328
 30
0.0
 11
17.4198
 21
64.0334
 31
0.0
  0
LINE
  8
0
 62
     0
 10
17.4198
 20
64.0334
 30
0.0
 11
16.6192
 21
64.0334
 31
0.0
  0
LINE
  8
0
 62
     0
 10
16.6192
 20
64.0334
 30
0.0
 11
16.6192
 21
69.8334
 31
0.0
  0
LINE
  8
0
 62
     0
 10
16.6192
 20
69.8334
 30
0.0
 11
17.4198
 21
69.8334
 31
0.0
  0
LINE
  8
0
 62
     0
 10
17.4198
 20
69.8334
 30
0.0
 11
17.4198
 21
72.9326
 31
0.0
  0
LINE
  8
0
 62
     0
 10
17.4198
 20
72.9326
 30
0.0
 11
16.6192
 21
72.9326
 31
0.0
  0
LINE
  8
0
 62
     0
 10
16.6192
 20
72.9326
 30
0.0
 11
16.6192
 21
73.9331
 31
0.0
  0
LINE
  8
0
 62
     0
 10
16.6192
 20
73.9331
 30
0.0
 11
2.61965
 21
73.9331
 31
0.0
  0
ENDSEC
  0
EOF
